<?xml version="1.0" encoding="utf-8"?><svg xmlns="http://www.w3.org/2000/svg" xmlns:xlink="http://www.w3.org/1999/xlink"><symbol viewBox="0 0 127.08 126" id="agreement" xmlns="http://www.w3.org/2000/svg"><path fill-rule="evenodd" d="M122.759 70.145l-19.38 19.507v32.657A3.692 3.692 0 0 1 99.687 126H18.46a3.692 3.692 0 0 1-3.692-3.691v-11.321H3.692A3.692 3.692 0 0 1 0 107.297V3.691A3.692 3.692 0 0 1 3.692 0h81.226a3.692 3.692 0 0 1 3.692 3.691v13.617c.378.291.74.605 1.082.947l10.442 10.441a11.001 11.001 0 0 1 3.245 7.831v21.696l3.706-3.731c4.328-4.326 11.355-4.326 15.674-.009 4.318 4.318 4.318 11.344 0 15.662zM22.152 118.617h73.843V97.085l-9.531 9.594a3.693 3.693 0 0 1-1.775.992l-13.694 3.219c-2.658.625-5.074-1.77-4.437-4.448l3.251-13.66a3.7 3.7 0 0 1 .973-1.747l25.213-25.379V44.543H77.534a3.692 3.692 0 0 1-3.692-3.692V22.394h-51.69v96.223zm61.239-19.321a11.103 11.103 0 0 0-2.158-3.049 11.111 11.111 0 0 0-3.069-2.166l-1.411 1.42-1.627 6.834 6.844-1.609 1.421-1.43zM81.226 7.383H7.384v96.222h7.384V18.703a3.691 3.691 0 0 1 3.692-3.691h62.766V7.383zm14.769 29.144c0-.986-.384-1.913-1.082-2.61L84.471 23.475a3.671 3.671 0 0 0-2.611-1.081h-.634V37.16h14.769v-.633zm8.515 31.034L83.549 88.66a18.577 18.577 0 0 1 2.906 2.366c.871.872 1.65 1.825 2.326 2.844l20.951-21.089-5.222-5.22zm13.027-7.857a3.696 3.696 0 0 0-5.221 0l-2.602 2.619 5.222 5.22 2.593-2.61a3.697 3.697 0 0 0 .008-5.229zm-54.771-7.778H33.229a3.692 3.692 0 0 1 0-7.383h29.537a3.692 3.692 0 1 1 0 7.383zm0-14.766H33.229a3.692 3.692 0 1 1 0-7.383h29.537a3.692 3.692 0 0 1 0 7.383zM35.839 97.304l4.774 4.772 19.542-19.538a3.691 3.691 0 1 1 5.221 5.22l-22.153 22.149a3.691 3.691 0 0 1-5.221 0l-7.384-7.383a3.691 3.691 0 1 1 5.221-5.22zM29.537 63a3.691 3.691 0 0 1 3.692-3.691h51.689a3.691 3.691 0 1 1 0 7.382H33.229A3.692 3.692 0 0 1 29.537 63z"/></symbol><symbol viewBox="0 0 166 139.61" id="building" xmlns="http://www.w3.org/2000/svg"><path fill-rule="evenodd" d="M164.485 55.322a2.686 2.686 0 0 1-2.838-.308l-1.384-1.093v79.686h3.048a2.693 2.693 0 0 1 2.689 2.697 2.693 2.693 0 0 1-2.689 2.696H2.689A2.693 2.693 0 0 1 0 136.304a2.693 2.693 0 0 1 2.689-2.697h3.047v-27.916l-1.383 1.093a2.684 2.684 0 0 1-2.838.308A2.695 2.695 0 0 1 0 104.666v-14.38c0-.826.377-1.607 1.025-2.118l35.171-27.786a8.38 8.38 0 0 1 10.428 0l25.082 19.815V53.922l-1.383 1.093a2.683 2.683 0 0 1-2.838.307 2.697 2.697 0 0 1-1.515-2.426v-14.38c0-.827.377-1.607 1.024-2.118l10.449-8.255V9.755a2.693 2.693 0 0 1 2.689-2.697h11.473a2.693 2.693 0 0 1 2.689 2.697v5.075L110.77 1.813a8.383 8.383 0 0 1 10.429 0l43.776 34.585A2.698 2.698 0 0 1 166 38.516v14.38a2.698 2.698 0 0 1-1.515 2.426zm-70.191 78.285h11.831v-14.749c-.059.004-.119.009-.179.009a2.696 2.696 0 0 1 0-5.393c.06 0 .12.005.179.009V98.734H94.294v34.873zm-17.21 0h11.832V96.038a2.693 2.693 0 0 1 2.689-2.696h17.209a2.693 2.693 0 0 1 2.689 2.696v37.569h43.382V49.672l-38.9-30.733-38.901 30.733v83.935zm-48.76 0h26.173v-6.112H28.324v6.112zm0-11.504h26.173v-6.112H28.324v6.112zm0-11.505h26.173v-6.112H28.324v6.112zm-17.21 23.01h11.832V101.79a2.693 2.693 0 0 1 2.689-2.696h31.551a2.693 2.693 0 0 1 2.689 2.696v31.818h11.831v-32.165L41.41 77.508l-30.296 23.935v32.165zm32.182-68.991a3.033 3.033 0 0 0-3.772 0L5.378 91.594v7.515l34.368-27.152a2.683 2.683 0 0 1 3.328 0l28.632 22.62v-7.515l-28.41-22.445zm45.62-52.166h-6.095v11.444l6.095-4.816v-6.628zm71.706 27.373L117.871 6.049a3.033 3.033 0 0 0-3.772 0L71.348 39.824v7.515l42.972-33.95a2.68 2.68 0 0 1 3.329 0l42.973 33.95v-7.515zm-51.808 41.654H91.605a2.693 2.693 0 0 1-2.689-2.697V55.772a2.693 2.693 0 0 1 2.689-2.696h17.209a2.693 2.693 0 0 1 2.689 2.696v23.009a2.693 2.693 0 0 1-2.689 2.697zm-2.689-23.009H94.294v3.235h11.831v-3.235zm0 8.628H94.294v8.988h11.831v-8.988zm17.03-14.021h17.21a2.693 2.693 0 0 1 2.689 2.696v23.009a2.693 2.693 0 0 1-2.689 2.697h-17.21a2.693 2.693 0 0 1-2.689-2.697V55.772a2.693 2.693 0 0 1 2.689-2.696zm2.689 23.009h11.832v-8.988h-11.832v8.988zm0-14.381h11.832v-3.235h-11.832v3.235zm-2.689 31.638h17.21a2.693 2.693 0 0 1 2.689 2.696v23.009a2.693 2.693 0 0 1-2.689 2.696h-17.21a2.693 2.693 0 0 1-2.689-2.696V96.038a2.693 2.693 0 0 1 2.689-2.696zm2.689 23.008h11.832v-8.987h-11.832v8.987zm0-14.38h11.832v-3.236h-11.832v3.236z"/></symbol><symbol viewBox="0 0 45.37 60.22" id="delivery-i" xmlns="http://www.w3.org/2000/svg"><path fill-rule="evenodd" d="M44.123 53.495h-1.876V32.858a1.877 1.877 0 0 0-1.876-1.876h-5.629V17.849a1.877 1.877 0 0 0-1.877-1.876h-20.64v-5.629c0-.499-.198-.976-.548-1.328L4.172 1.511a1.886 1.886 0 0 0-2.657.004 1.877 1.877 0 0 0 0 2.653l6.958 6.957v38.967c-2.181.777-3.753 2.84-3.753 5.283A5.636 5.636 0 0 0 10.349 61c2.443 0 4.507-1.572 5.284-3.753h28.49a1.877 1.877 0 1 0 0-3.752zm-31.898-33.77h7.506v1.876a1.876 1.876 0 0 0 3.753 0v-1.876h7.505v11.257H12.225V19.725zm15.011 15.009v3.752h-3.752v-3.752h3.752zM10.349 57.247a1.879 1.879 0 0 1-1.876-1.876 1.88 1.88 0 0 1 1.876-1.876 1.88 1.88 0 0 1 1.876 1.876 1.879 1.879 0 0 1-1.876 1.876zm28.145-3.752H15.633a5.614 5.614 0 0 0-3.408-3.407V34.734h7.506v5.628c0 1.04.84 1.876 1.876 1.876h7.506c1.035 0 1.876-.84 1.876-1.876v-5.628h7.505v18.761z"/></symbol><symbol viewBox="0 0 390.9 183.9" id="eagle" xmlns="http://www.w3.org/2000/svg"><title>Vector Smart Object</title><path d="M281.6 87.9s-6.2-6.8.2-15.8 41.5-40 25.4-52.6C208.3-58.3 0 121.8 0 121.8s54.5-26.1 63.6-24.1c4.3 2.8-20.3 24.4-17.3 22.8s54.7-27.6 62.7-25-21.3 24.3-21.3 24.3 51.6-22.4 57.1-21c7.9 2-16.5 20-16.5 20l65.1.2-54.8 64.8h101l9.7-12H206l6.6-8h44l8-11h-43l6.6-8h50.4s20-25.3 22.7-28c4.3-5 10.3-9.7 22-11.3 7-1.3 23.3-2.3 23.3-35.7 0 0 2.4-14.8 10.3-17.7 5.3-1.9 24.7-5.4 26.2 1 1 4.1.6 3.6.6 3.6s15-11.6 1.6-22.3c-5.3-4-20.3-2.8-20.3-2.8s-3-7.7-4.3-8.3c-17.3-7.7-57.3-5-57.3-5l7.2 6.9s37.8-1.5 46.1 4.5c3.1 2.2 3.7 6.9 5.3 7 9.6.5 17.3.2 20.3 2.5 6.3 4.7 2.8 10.4 2.8 10.4-1-7-37.1-8.2-41.7 2.4-.5 1.2-7.3 38-18.6 43.5-13.4 6.6-23.7 3.5-46 34.5h-53l-34.3 42-24.7-.3 54.3-65-64 .3s18.9-13.2 14.4-18c-10.6-11.2-56.1 13.2-53.4 11.8s15.4-11 7.9-13.5c-19.4-6.4-54 13.6-54 13.6s12-10 7.9-12.2C68.8 82.6 33 102.6 33 102.6s55.3-41.7 112.6-66.4 134.7-36.2 150-8.6c4.5 14-11.7 28.1-17.9 39.1-3.3 6.4-6.7 14.9 3.9 21.2z"/><path d="M338.1 32.7s9.7-.5 9.8.8-.7 5.5-2.7 4.7-7.7-4.1-7.1-5.5z"/></symbol><symbol viewBox="0 0 48 48" id="earth" xmlns="http://www.w3.org/2000/svg"><path fill-rule="evenodd" d="M25.6.054V0h-3.2v.054C10.419.842.842 10.419.055 22.4H0v3.2h.055C.842 37.581 10.419 47.156 22.4 47.944V48h3.2v-.056c11.981-.788 21.556-10.363 22.344-22.344H48v-3.2h-.056C47.156 10.419 37.581.842 25.6.054zM15.023 5.231c-1.545 2.055-2.828 4.631-3.762 7.569H6.467a20.925 20.925 0 0 1 8.556-7.569zM4.793 16h5.626a38.25 38.25 0 0 0-.788 6.4h-6.37c.169-2.253.7-4.407 1.532-6.4zm-1.532 9.6h6.37c.088 2.231.36 4.378.788 6.4H4.793a20.604 20.604 0 0 1-1.532-6.4zm3.206 9.6h4.791c.934 2.937 2.217 5.513 3.765 7.569A20.918 20.918 0 0 1 6.467 35.2zM22.4 44.593c-3.289-.878-6.122-4.412-7.841-9.393H22.4v9.393zM22.4 32h-8.739a35.801 35.801 0 0 1-.83-6.4H22.4V32zm0-9.6h-9.569a35.79 35.79 0 0 1 .83-6.4H22.4v6.4zm0-9.6h-7.841c1.719-4.983 4.552-8.516 7.841-9.393V12.8zm19.131 0h-4.787c-.938-2.938-2.219-5.514-3.769-7.569a20.912 20.912 0 0 1 8.556 7.569zM25.6 3.407c3.287.877 6.122 4.41 7.841 9.393H25.6V3.407zM25.6 16h8.737c.454 1.993.735 4.147.831 6.4H25.6V16zm0 9.6h9.568a35.529 35.529 0 0 1-.831 6.4H25.6v-6.4zm0 18.993V35.2h7.841c-1.719 4.981-4.554 8.515-7.841 9.393zm7.375-1.824c1.547-2.056 2.831-4.632 3.769-7.569h4.787a20.905 20.905 0 0 1-8.556 7.569zM43.206 32h-5.625c.428-2.022.7-4.169.788-6.4h6.368a20.63 20.63 0 0 1-1.531 6.4zm-4.837-9.6a38.25 38.25 0 0 0-.788-6.4h5.625a20.624 20.624 0 0 1 1.531 6.4h-6.368z"/></symbol><symbol viewBox="0 0 136 136" id="earth2" xmlns="http://www.w3.org/2000/svg"><path fill-rule="evenodd" d="M116.083 19.916C128.927 32.76 136 49.837 136 68c0 18.163-7.073 35.24-19.917 48.083C103.24 128.926 86.163 136 68 136c-18.164 0-35.24-7.074-48.084-19.917C7.073 103.24 0 86.163 0 68c0-18.163 7.073-35.24 19.916-48.084C32.76 7.073 49.836 0 68 0c18.163 0 35.24 7.073 48.083 19.916zm-6.01 90.157c8.375-8.375 13.943-18.808 16.239-30.157-1.789 2.634-3.501 3.612-4.561-2.285-1.092-9.614-9.922-3.473-15.475-6.888-5.844 3.939-18.98-7.658-16.748 5.422 3.445 5.9 18.595-7.896 11.044 4.588-4.818 8.715-17.617 28.014-15.952 38.018.21 14.576-14.893 3.04-20.096-1.795-3.501-9.685-1.193-26.613-10.346-31.355-9.935-.432-18.462-1.335-22.312-12.441-2.317-7.946 2.466-19.775 10.981-21.601 12.464-7.831 16.917 9.171 28.606 9.487 3.63-3.797 13.523-5.005 14.343-9.263-7.67-1.354 9.731-6.449-.734-9.348-5.774.679-9.493 5.986-6.424 10.487C67.45 55.55 67.092 36.751 56.337 42.681c-.273 9.375-17.561 3.039-5.981 1.138 3.978-1.738-6.49-6.775-.834-5.86 2.778-.151 12.13-3.428 9.599-5.631 5.207-3.233 9.583 7.741 14.681-.25 3.679-6.145-1.544-7.28-6.156-4.165-2.601-2.912 4.591-9.2 10.934-11.918 2.115-.906 4.134-1.399 5.678-1.26 3.195 3.691 9.104 4.331 9.413-.444C85.758 10.502 77.033 8.5 68 8.5c-12.966 0-25.297 4.12-35.502 11.739 2.743 1.256 4.299 2.821 1.657 4.82-2.053 6.117-10.382 14.328-17.694 13.165a58.858 58.858 0 0 0-7.365 21.321c6.124 2.026 7.536 6.036 6.22 7.377-3.121 2.721-5.038 6.579-6.026 10.801 1.993 12.197 7.726 23.438 16.637 32.35C37.165 121.311 52.107 127.5 68 127.5s30.835-6.189 42.073-17.427z"/></symbol><symbol viewBox="0 0 67 53" id="mail" xmlns="http://www.w3.org/2000/svg"><title>Векторный смарт-объект5</title><rect x="1" y="1" width="65" height="51" rx="4.4" ry="4.4" fill="none"/><path fill="none" d="M1.7 3L34 35.3 65 3.2M27.2 29.4L3 49.9M40.5 29.4l24.2 20.5"/></symbol><symbol viewBox="0 0 50.26 50" id="operator" xmlns="http://www.w3.org/2000/svg"><path fill-rule="evenodd" d="M44.691 31.153c.84 5.303 2.312 10.919 4.753 12.962a1.563 1.563 0 0 1-1.007 2.76H35.344A18.624 18.624 0 0 1 25.001 50a18.63 18.63 0 0 1-10.343-3.125H1.566A1.568 1.568 0 0 1 .097 45.85a1.555 1.555 0 0 1 .462-1.731C3 42.072 4.472 36.456 5.312 31.156 2.315 30.697.003 28.125.003 25a6.256 6.256 0 0 1 6.25-6.25C6.253 8.409 14.661 0 25.001 0 35.341 0 43.75 8.409 43.75 18.75A6.256 6.256 0 0 1 50 25c0 3.125-2.313 5.697-5.309 6.153zM3.128 25c0 1.547 1.194 2.812 2.612 3.069.297-2.479.453-4.691.51-6.172-1.632.006-3.122 1.375-3.122 3.103zm1.65 18.75h6.287a18.805 18.805 0 0 1-3.803-6.478c-.628 2.384-1.434 4.659-2.484 6.478zM25.001 3.125c-8.599 0-15.595 6.987-15.62 15.584 17.423-.437 18.745-7.884 18.758-7.962.118-.847.906-1.46 1.737-1.347.847.103 1.453.85 1.366 1.697-.016.156-.213 1.547-1.397 3.271 2.031 1.466 5.374 3.029 10.724 3.832-.297-8.356-7.14-15.075-15.568-15.075zm15.624 18.206c-5.424-.75-9.721-2.325-12.836-4.687-2.938 2.509-8.415 4.943-18.411 5.184v9.422c0 8.615 7.008 15.625 15.623 15.625 5.084 0 9.565-2.478 12.421-6.25h-8.021c-.647 1.816-2.365 3.125-4.4 3.125a4.693 4.693 0 0 1-4.687-4.688 4.693 4.693 0 0 1 4.687-4.687c2.035 0 3.753 1.309 4.4 3.125H39.3a15.466 15.466 0 0 0 1.325-6.25v-9.919zM26.564 39.062c0-.859-.703-1.562-1.563-1.562-.859 0-1.562.703-1.562 1.562 0 .86.703 1.563 1.562 1.563.86 0 1.563-.703 1.563-1.563zm16.18-1.794a18.515 18.515 0 0 1-.981 2.338c-.022.056-.05.106-.078.159a18.667 18.667 0 0 1-2.744 3.982h6.287c-1.05-1.819-1.856-4.091-2.484-6.479zm1.009-15.371c.056 1.478.216 3.693.51 6.172 1.415-.26 2.612-1.522 2.612-3.069 0-1.728-1.494-3.094-3.122-3.103zm-7.815 7.79c-.862 0-1.562-.7-1.562-1.562 0-.859-.703-1.563-1.563-1.563-.859 0-1.562.704-1.562 1.563a1.563 1.563 0 0 1-3.125 0 4.694 4.694 0 0 1 4.687-4.688 4.694 4.694 0 0 1 4.688 4.688c0 .862-.7 1.562-1.563 1.562zm-15.624 0c-.862 0-1.562-.7-1.562-1.562 0-.859-.703-1.563-1.563-1.563-.859 0-1.562.704-1.562 1.563a1.563 1.563 0 0 1-3.125 0 4.694 4.694 0 0 1 4.687-4.688 4.694 4.694 0 0 1 4.688 4.688c0 .862-.7 1.562-1.563 1.562z"/></symbol><symbol viewBox="0 0 20 34" id="phone" xmlns="http://www.w3.org/2000/svg"><path fill-rule="evenodd" d="M17.869 33.999H2.13c-1.175 0-2.13-.976-2.13-2.177V2.176C0 .975.955-.001 2.13-.001h15.739C19.044-.001 20 .975 20 2.176v29.646c0 1.201-.956 2.177-2.131 2.177zm.71-31.823c0-.4-.318-.725-.71-.725H2.13a.719.719 0 0 0-.71.725v29.646c0 .4.319.726.71.726h15.739c.392 0 .71-.326.71-.726V2.176zm-2.122 24.507H3.543a.646.646 0 0 1-.639-.653V6.024c0-.361.286-.653.639-.653h12.914c.353 0 .639.292.639.653V26.03a.646.646 0 0 1-.639.653zm-.639-20.006H4.182v18.7h11.636v-18.7zM6.781 17.112l3.411-3.486a.7.7 0 0 1 1.005 0 .737.737 0 0 1 0 1.026l-3.412 3.486a.7.7 0 0 1-1.004 0 .737.737 0 0 1 0-1.026zm4.074-.078l1.359-1.388a.7.7 0 0 1 1.004 0 .735.735 0 0 1 0 1.026l-1.359 1.389a.698.698 0 0 1-1.004 0 .738.738 0 0 1 0-1.027zm2.172-12.97H9.752a.683.683 0 0 1-.675-.69c0-.38.302-.689.675-.689h3.275c.373 0 .675.309.675.689 0 .381-.302.69-.675.69zm-5.346.051a.716.716 0 0 1-.709-.724c0-.399.317-.724.709-.724.391 0 .708.325.708.724 0 .4-.317.724-.708.724zM10 27.766c1.018 0 1.846.846 1.846 1.886s-.828 1.886-1.846 1.886c-1.018 0-1.846-.846-1.846-1.886s.828-1.886 1.846-1.886zm0 2.466a.575.575 0 0 0 .567-.58c0-.32-.254-.58-.567-.58a.575.575 0 0 0-.568.58c0 .319.255.58.568.58z"/></symbol><symbol viewBox="0 0 31 35" id="pin" xmlns="http://www.w3.org/2000/svg"><path fill-rule="evenodd" d="M31 30.485C31 33.585 22.963 35 15.5 35 8.03 35 0 33.585 0 30.485c0-3.149 7.909-4.1 11.386-4.364-2.93-4.893-6.633-11.771-6.633-15.307C4.753 4.85 9.569 0 15.493 0c5.923 0 10.74 4.85 10.74 10.814 0 3.536-3.703 10.414-6.633 15.307 3.476.264 11.393 1.215 11.4 4.364zm-6.243-19.671c0-5.143-4.157-9.328-9.264-9.328-5.101 0-9.258 4.185-9.258 9.328 0 4.493 7.101 15.764 9.258 19.079 2.156-3.315 9.264-14.586 9.264-19.079zm-6.022 16.728c-1.412 2.293-2.476 3.929-2.625 4.108-.475.564-1.036.257-1.227 0-.142-.193-1.213-1.815-2.625-4.108-7.519.436-10.783 2.143-10.783 2.936 0 1.029 4.945 3.029 14.018 3.029s14.017-1.993 14.024-3.029c0-.8-3.263-2.5-10.782-2.936zm-7.917-16.728c0-2.6 2.093-4.707 4.675-4.707s4.675 2.107 4.675 4.707c0 2.6-2.093 4.707-4.675 4.707s-4.675-2.107-4.675-4.707zm7.874 0c0-1.778-1.433-3.221-3.199-3.221-1.767 0-3.2 1.443-3.2 3.221 0 1.779 1.433 3.222 3.2 3.222 1.766 0 3.199-1.443 3.199-3.222z"/></symbol><symbol viewBox="0 0 51.22 51.07" id="professionalism" xmlns="http://www.w3.org/2000/svg"><path fill-rule="evenodd" d="M50.672 42.413a1.586 1.586 0 0 1-1.677.567l-9.358-2.518-2.49 9.355A1.589 1.589 0 0 1 35.608 51c-.565 0-1.094-.3-1.381-.797l-8.724-15.102-8.724 15.102a1.595 1.595 0 0 1-1.591.781 1.589 1.589 0 0 1-1.329-1.17l-2.49-9.355-9.358 2.518a1.588 1.588 0 0 1-1.677-.567 1.594 1.594 0 0 1-.118-1.77l9.25-16.055a17.39 17.39 0 0 1-1.495-7.054C7.971 7.863 15.835 0 25.503 0s17.532 7.863 17.532 17.531c0 2.509-.539 4.893-1.495 7.057l9.25 16.059a1.593 1.593 0 0 1-.118 1.766zM4.898 38.897l7.185-1.932a1.625 1.625 0 0 1 1.212.16c.366.213.634.564.742.972l1.91 7.175 6.097-10.554c-4.402-.886-8.198-3.43-10.739-6.942L4.898 38.897zm20.605-35.71c-7.908 0-14.344 6.436-14.344 14.344 0 7.908 6.436 14.344 14.344 14.344 7.908 0 14.344-6.436 14.344-14.344 0-7.908-6.436-14.344-14.344-14.344zM39.7 27.779c-2.54 3.513-6.34 6.059-10.738 6.942l6.097 10.554 1.91-7.175c.108-.411.376-.762.742-.972a1.604 1.604 0 0 1 1.212-.159l7.184 1.931L39.7 27.779zm-8.013-8.935l.331 4.957a1.586 1.586 0 0 1-.666 1.405 1.595 1.595 0 0 1-1.549.166l-4.3-1.826-4.3 1.826a1.59 1.59 0 0 1-1.546-.166 1.597 1.597 0 0 1-.669-1.405l.331-4.957-3.031-3.793a1.592 1.592 0 0 1 .844-2.537l4.524-1.183 2.479-4.175c.571-.969 2.165-.969 2.739 0l2.48 4.175 4.52 1.183a1.595 1.595 0 0 1 .841 2.537l-3.028 3.793zm-3.774-4.596a1.6 1.6 0 0 1-.966-.727l-1.444-2.432-1.444 2.432a1.6 1.6 0 0 1-.966.727l-2.783.73 1.884 2.362c.249.312.373.704.345 1.1l-.198 2.986 2.537-1.08a1.592 1.592 0 0 1 1.25 0l2.54 1.08-.201-2.986a1.585 1.585 0 0 1 .345-1.1l1.884-2.362-2.783-.73z"/></symbol><symbol viewBox="0 0 19 17" id="sitemap" xmlns="http://www.w3.org/2000/svg"><path fill-rule="evenodd" d="M6.873.579v5.23c0 .321.214.58.477.58h1.675v1.574H2.628c-.263 0-.476.259-.476.579v2.069H.477c-.264 0-.477.259-.477.579v5.23c0 .321.213.58.477.58H4.78c.264 0 .477-.259.477-.58v-5.23c0-.32-.213-.579-.477-.579H3.101V9.117h5.92v1.494H7.346c-.263 0-.476.259-.476.579v5.23c0 .321.213.58.476.58h4.304c.263 0 .476-.259.476-.58v-5.23c0-.32-.213-.579-.476-.579H9.975V9.117h5.92v1.494H14.22c-.264 0-.477.259-.477.579v5.23c0 .321.213.58.477.58h4.303c.264 0 .477-.259.477-.58v-5.23c0-.32-.213-.579-.477-.579h-1.675V8.542c0-.32-.213-.579-.476-.579H9.975V6.389h1.675c.263 0 .476-.259.476-.58V.579c0-.32-.213-.579-.476-.579H7.346c-.259 0-.473.259-.473.579zm-2.57 15.257H.954V11.76h3.349v4.076zm6.87 0H7.819V11.76h3.354v4.076zm6.869 0h-3.349V11.76h3.353v4.076h-.004zM7.823 1.154h3.354V5.23H7.823V1.154z"/></symbol><symbol viewBox="0 0 56.13 50" id="stability" xmlns="http://www.w3.org/2000/svg"><path fill-rule="evenodd" d="M55.958 29.218a5.366 5.366 0 0 1-2.008 3.589L39.149 44.553c-1.544 1.211-3.437 1.875-5.341 1.875H10.499v1.786c0 .986-.784 1.786-1.75 1.786H1.75C.784 50 0 49.2 0 48.214v-25c0-.986.784-1.786 1.75-1.786h6.999c.966 0 1.75.8 1.75 1.786V25l19.249.003c.966 0 1.75.8 1.75 1.786 0 3.497-1.424 6.654-3.703 8.925h3.003a6.842 6.842 0 0 0 4.27-1.507l12.47-9.868c1.081-.864 2.443-1.271 3.832-1.086 1.4.175 2.657.9 3.524 2.043a5.338 5.338 0 0 1 1.064 3.922zM6.999 25H3.5v21.428h3.499V25zm45.138 2.496a1.769 1.769 0 0 0-1.194-.7 1.707 1.707 0 0 0-1.246.358l-12.47 9.864a10.321 10.321 0 0 1-6.429 2.268H19.249c-.966 0-1.75-.8-1.75-1.786s.784-1.786 1.75-1.786c4.224 0 7.762-3.071 8.574-7.139l-17.324-.004v14.286h23.309c1.134 0 2.275-.4 3.202-1.129l14.798-11.743c.381-.303.619-.732.679-1.21a1.76 1.76 0 0 0-.35-1.279zm-4.89-6.068c-.966 0-1.75-.8-1.75-1.785V3.571H34.998V12.5c0 .661-.357 1.264-.924 1.571a1.705 1.705 0 0 1-1.795-.086l-4.281-2.91-4.276 2.91c-.543.365-1.229.4-1.799.086a1.782 1.782 0 0 1-.924-1.571V3.571h-10.5v12.5c0 .986-.784 1.786-1.75 1.786s-1.75-.8-1.75-1.786V1.786C6.999.8 7.783 0 8.749 0h38.498c.966 0 1.75.8 1.75 1.786v17.857c0 .985-.784 1.785-1.75 1.785zM31.498 3.571h-6.999v5.59l2.526-1.718a1.734 1.734 0 0 1 1.943 0l2.53 1.718v-5.59z"/></symbol><symbol viewBox="0 0 56.01 46" id="truck-time" xmlns="http://www.w3.org/2000/svg"><path fill-rule="evenodd" d="M54.25 42.461h-2.072C51.453 44.517 49.528 46 47.25 46c-2.279 0-4.204-1.483-4.928-3.539H20.678C19.953 44.517 18.028 46 15.75 46c-2.279 0-4.204-1.483-4.928-3.539H5.25a1.76 1.76 0 0 1-1.75-1.769V21.025A12.4 12.4 0 0 1 0 12.384C0 5.555 5.495 0 12.25 0S24.5 5.555 24.5 12.384c0 .605-.095 1.186-.179 1.77H36.75c.966 0 1.75.792 1.75 1.769v5.308H49a1.74 1.74 0 0 1 1.501.86l5.25 8.846c.165.272.249.587.249.909v8.846a1.76 1.76 0 0 1-1.75 1.769zm-38.5 0c.962 0 1.75-.792 1.75-1.769 0-.976-.788-1.769-1.75-1.769-.963 0-1.75.793-1.75 1.769 0 .977.787 1.769 1.75 1.769zm-3.5-38.923c-4.827 0-8.75 3.97-8.75 8.846 0 4.877 3.923 8.847 8.75 8.847 4.826 0 8.75-3.97 8.75-8.847 0-4.876-3.924-8.846-8.75-8.846zM35 17.692H23.271c-1.974 4.169-6.153 7.077-11.021 7.077-1.887 0-3.654-.47-5.25-1.242v15.396h3.822c.724-2.056 2.649-3.539 4.928-3.539 2.278 0 4.203 1.483 4.928 3.539H35V17.692zm12.25 24.769c.962 0 1.75-.792 1.75-1.769 0-.976-.788-1.769-1.75-1.769-.963 0-1.75.793-1.75 1.769 0 .977.787 1.769 1.75 1.769zm5.25-10.123l-4.491-7.569H38.5v14.154h3.822c.724-2.056 2.649-3.539 4.928-3.539 2.278 0 4.203 1.483 4.928 3.539h.322v-6.585zM15.75 17.692c-.448 0-.896-.173-1.239-.517l-3.5-3.538a1.789 1.789 0 0 1-.511-1.253V8.846a1.76 1.76 0 0 1 1.75-1.769c.966 0 1.75.792 1.75 1.769v2.806l2.989 3.022c.682.69.682 1.812 0 2.501a1.745 1.745 0 0 1-1.239.517z"/></symbol><symbol viewBox="0 0 150.38 150.02" id="twobuilding" xmlns="http://www.w3.org/2000/svg"><path fill-rule="evenodd" d="M147.07 150H147a2.93 2.93 0 0 1 0-5.859h.07a2.93 2.93 0 1 1 0 5.859zm-8.487 0H11.416a2.93 2.93 0 0 1 0-5.859h2.06V41.602a2.93 2.93 0 0 1 2.93-2.93H72.07V2.929A2.929 2.929 0 0 1 75 0h58.592a2.93 2.93 0 0 1 2.93 2.929v141.212h2.061a2.93 2.93 0 1 1 0 5.859zm-89.951-5.859h11.72v-11.718h-11.72v11.718zM72.07 44.532H19.336v87.89h6.162a2.93 2.93 0 0 1 0 5.86h-6.162v5.859h23.437v-14.648a2.93 2.93 0 0 1 2.93-2.93h17.578a2.93 2.93 0 0 1 2.93 2.93v14.648h5.859V44.532zm35.156 99.609h11.718v-11.718h-11.718v11.718zM130.662 5.859H77.929V132.422h6.162a2.93 2.93 0 0 1 0 5.86h-6.162v5.859h23.438v-14.648a2.93 2.93 0 0 1 2.929-2.93h17.578a2.93 2.93 0 0 1 2.93 2.93v14.648h5.858V5.859zm-8.788 107.518h-4.394a2.93 2.93 0 0 1-2.93-2.929v-4.394a2.93 2.93 0 0 1 2.93-2.93h4.394a2.93 2.93 0 0 1 2.93 2.93v4.394a2.93 2.93 0 0 1-2.93 2.929zm0-17.577h-4.394a2.93 2.93 0 0 1-2.93-2.929v-4.395a2.93 2.93 0 0 1 2.93-2.929h4.394a2.93 2.93 0 0 1 2.93 2.929v4.395a2.93 2.93 0 0 1-2.93 2.929zm0-17.577h-4.394a2.93 2.93 0 0 1-2.93-2.93v-4.395a2.93 2.93 0 0 1 2.93-2.93h4.394a2.93 2.93 0 0 1 2.93 2.93v4.395a2.93 2.93 0 0 1-2.93 2.93zm0-17.579h-4.394a2.93 2.93 0 0 1-2.93-2.929V53.32a2.93 2.93 0 0 1 2.93-2.929h4.394a2.93 2.93 0 0 1 2.93 2.929v4.395a2.93 2.93 0 0 1-2.93 2.929zm0-17.577h-4.394a2.93 2.93 0 0 1-2.93-2.93v-4.394a2.93 2.93 0 0 1 2.93-2.93h4.394a2.93 2.93 0 0 1 2.93 2.93v4.394a2.93 2.93 0 0 1-2.93 2.93zm0-17.577h-4.394a2.93 2.93 0 0 1-2.93-2.93v-4.395a2.93 2.93 0 0 1 2.93-2.93h4.394a2.93 2.93 0 0 1 2.93 2.93v4.395a2.93 2.93 0 0 1-2.93 2.93zm-15.38 87.887h-4.395a2.93 2.93 0 0 1-2.93-2.929v-4.394a2.93 2.93 0 0 1 2.93-2.93h4.395a2.93 2.93 0 0 1 2.929 2.93v4.394a2.929 2.929 0 0 1-2.929 2.929zm0-17.577h-4.395a2.93 2.93 0 0 1-2.93-2.929v-4.395a2.93 2.93 0 0 1 2.93-2.929h4.395a2.929 2.929 0 0 1 2.929 2.929v4.395a2.929 2.929 0 0 1-2.929 2.929zm0-17.577h-4.395a2.93 2.93 0 0 1-2.93-2.93v-4.395a2.93 2.93 0 0 1 2.93-2.93h4.395a2.93 2.93 0 0 1 2.929 2.93v4.395a2.93 2.93 0 0 1-2.929 2.93zm0-17.579h-4.395a2.93 2.93 0 0 1-2.93-2.929V53.32a2.93 2.93 0 0 1 2.93-2.929h4.395a2.929 2.929 0 0 1 2.929 2.929v4.395a2.93 2.93 0 0 1-2.929 2.929zm0-17.577h-4.395a2.93 2.93 0 0 1-2.93-2.93v-4.394a2.93 2.93 0 0 1 2.93-2.93h4.395a2.93 2.93 0 0 1 2.929 2.93v4.394a2.93 2.93 0 0 1-2.929 2.93zm0-17.577h-4.395a2.93 2.93 0 0 1-2.93-2.93v-4.395a2.93 2.93 0 0 1 2.93-2.93h4.395a2.93 2.93 0 0 1 2.929 2.93v4.395a2.93 2.93 0 0 1-2.929 2.93zM92.577 138.282h-.069a2.93 2.93 0 0 1 0-5.86h.069a2.93 2.93 0 0 1 0 5.86zm-1.464-24.905h-4.395a2.929 2.929 0 0 1-2.929-2.929v-4.394a2.93 2.93 0 0 1 2.929-2.93h4.395a2.93 2.93 0 0 1 2.929 2.93v4.394a2.929 2.929 0 0 1-2.929 2.929zm0-17.577h-4.395a2.93 2.93 0 0 1-2.929-2.929v-4.395a2.929 2.929 0 0 1 2.929-2.929h4.395a2.929 2.929 0 0 1 2.929 2.929v4.395a2.929 2.929 0 0 1-2.929 2.929zm0-17.577h-4.395a2.93 2.93 0 0 1-2.929-2.93v-4.395a2.93 2.93 0 0 1 2.929-2.93h4.395a2.93 2.93 0 0 1 2.929 2.93v4.395a2.93 2.93 0 0 1-2.929 2.93zm0-17.579h-4.395a2.93 2.93 0 0 1-2.929-2.929V53.32a2.929 2.929 0 0 1 2.929-2.929h4.395a2.929 2.929 0 0 1 2.929 2.929v4.395a2.93 2.93 0 0 1-2.929 2.929zm0-17.577h-4.395a2.93 2.93 0 0 1-2.929-2.93v-4.394a2.93 2.93 0 0 1 2.929-2.93h4.395a2.93 2.93 0 0 1 2.929 2.93v4.394a2.93 2.93 0 0 1-2.929 2.93zm0-17.577h-4.395a2.93 2.93 0 0 1-2.929-2.93v-4.395a2.93 2.93 0 0 1 2.929-2.93h4.395a2.93 2.93 0 0 1 2.929 2.93v4.395a2.93 2.93 0 0 1-2.929 2.93zm-27.832 87.887h-4.394a2.93 2.93 0 0 1-2.93-2.929v-4.394a2.93 2.93 0 0 1 2.93-2.93h4.394a2.93 2.93 0 0 1 2.93 2.93v4.394a2.93 2.93 0 0 1-2.93 2.929zm0-17.577h-4.394a2.93 2.93 0 0 1-2.93-2.929v-4.395a2.93 2.93 0 0 1 2.93-2.929h4.394a2.93 2.93 0 0 1 2.93 2.929v4.395a2.93 2.93 0 0 1-2.93 2.929zm0-17.577h-4.394a2.93 2.93 0 0 1-2.93-2.93v-4.395a2.93 2.93 0 0 1 2.93-2.93h4.394a2.93 2.93 0 0 1 2.93 2.93v4.395a2.93 2.93 0 0 1-2.93 2.93zm0-17.579h-4.394a2.93 2.93 0 0 1-2.93-2.929V53.32a2.93 2.93 0 0 1 2.93-2.929h4.394a2.93 2.93 0 0 1 2.93 2.929v4.395a2.93 2.93 0 0 1-2.93 2.929zM47.9 113.377h-4.395a2.93 2.93 0 0 1-2.929-2.929v-4.394a2.93 2.93 0 0 1 2.929-2.93H47.9a2.93 2.93 0 0 1 2.93 2.93v4.394a2.93 2.93 0 0 1-2.93 2.929zm0-17.577h-4.395a2.93 2.93 0 0 1-2.929-2.929v-4.395a2.93 2.93 0 0 1 2.929-2.929H47.9a2.93 2.93 0 0 1 2.93 2.929v4.395A2.93 2.93 0 0 1 47.9 95.8zm0-17.577h-4.395a2.93 2.93 0 0 1-2.929-2.93v-4.395a2.93 2.93 0 0 1 2.929-2.93H47.9a2.93 2.93 0 0 1 2.93 2.93v4.395a2.93 2.93 0 0 1-2.93 2.93zm0-17.579h-4.395a2.93 2.93 0 0 1-2.929-2.929V53.32a2.93 2.93 0 0 1 2.929-2.929H47.9a2.93 2.93 0 0 1 2.93 2.929v4.395a2.93 2.93 0 0 1-2.93 2.929zm-13.916 77.638h-.069a2.93 2.93 0 0 1 0-5.86h.069a2.93 2.93 0 0 1 0 5.86zm-1.465-24.905h-4.394a2.929 2.929 0 0 1-2.93-2.929v-4.394a2.93 2.93 0 0 1 2.93-2.93h4.394a2.93 2.93 0 0 1 2.93 2.93v4.394a2.93 2.93 0 0 1-2.93 2.929zm0-17.577h-4.394a2.93 2.93 0 0 1-2.93-2.929v-4.395a2.929 2.929 0 0 1 2.93-2.929h4.394a2.93 2.93 0 0 1 2.93 2.929v4.395a2.93 2.93 0 0 1-2.93 2.929zm0-17.577h-4.394a2.93 2.93 0 0 1-2.93-2.93v-4.395a2.93 2.93 0 0 1 2.93-2.93h4.394a2.93 2.93 0 0 1 2.93 2.93v4.395a2.93 2.93 0 0 1-2.93 2.93zm0-17.579h-4.394a2.93 2.93 0 0 1-2.93-2.929V53.32a2.929 2.929 0 0 1 2.93-2.929h4.394a2.93 2.93 0 0 1 2.93 2.929v4.395a2.93 2.93 0 0 1-2.93 2.929zM2.999 150H2.93a2.93 2.93 0 1 1 0-5.859h.069a2.929 2.929 0 1 1 0 5.859z"/></symbol></svg>