<svg 
 xmlns="http://www.w3.org/2000/svg"
 xmlns:xlink="http://www.w3.org/1999/xlink">
<path fill-rule="evenodd"
 d="M122.759,70.145 L103.379,89.652 L103.379,122.309 C103.379,124.347 101.726,126.000 99.687,126.000 L18.460,126.000 C16.421,126.000 14.768,124.347 14.768,122.309 L14.768,110.988 L3.692,110.988 C1.653,110.988 -0.000,109.335 -0.000,107.297 L-0.000,3.691 C-0.000,1.653 1.653,-0.000 3.692,-0.000 L84.918,-0.000 C86.957,-0.000 88.610,1.653 88.610,3.691 L88.610,17.308 C88.988,17.599 89.350,17.913 89.692,18.255 L100.134,28.696 C102.226,30.788 103.379,33.568 103.379,36.527 L103.379,58.223 L107.085,54.492 C111.413,50.166 118.440,50.166 122.759,54.483 C127.077,58.801 127.077,65.827 122.759,70.145 ZM22.152,118.617 L95.995,118.617 L95.995,97.085 C94.991,98.096 87.468,105.668 86.464,106.679 C85.977,107.169 85.362,107.513 84.689,107.671 L70.995,110.890 C68.337,111.515 65.921,109.120 66.558,106.442 L69.809,92.782 C69.967,92.122 70.303,91.517 70.782,91.035 L95.995,65.656 L95.995,44.543 L77.534,44.543 C75.495,44.543 73.842,42.890 73.842,40.851 L73.842,22.394 L22.152,22.394 L22.152,118.617 ZM83.391,99.296 C82.851,98.172 82.125,97.138 81.233,96.247 C80.337,95.351 79.295,94.621 78.164,94.081 L76.753,95.501 L75.126,102.335 L81.970,100.726 L83.391,99.296 ZM81.226,7.383 L7.384,7.383 L7.384,103.605 L14.768,103.605 L14.768,18.703 C14.768,16.664 16.421,15.012 18.460,15.012 L81.226,15.012 L81.226,7.383 ZM95.995,36.527 C95.995,35.541 95.611,34.614 94.913,33.917 L84.471,23.475 C83.773,22.778 82.846,22.394 81.860,22.394 L81.226,22.394 L81.226,37.160 L95.995,37.160 L95.995,36.527 ZM104.510,67.561 C103.170,68.910 84.888,87.312 83.549,88.660 C84.590,89.346 85.566,90.138 86.455,91.026 C87.326,91.898 88.105,92.851 88.781,93.870 L109.732,72.781 L104.510,67.561 ZM117.537,59.704 C116.099,58.265 113.756,58.264 112.316,59.704 L109.714,62.323 L114.936,67.543 L117.529,64.933 C118.977,63.485 118.977,61.143 117.537,59.704 ZM62.766,51.926 L33.229,51.926 C31.190,51.926 29.537,50.273 29.537,48.234 C29.537,46.196 31.190,44.543 33.229,44.543 L62.766,44.543 C64.805,44.543 66.458,46.196 66.458,48.234 C66.458,50.273 64.805,51.926 62.766,51.926 ZM62.766,37.160 L33.229,37.160 C31.190,37.160 29.537,35.507 29.537,33.469 C29.537,31.430 31.190,29.777 33.229,29.777 L62.766,29.777 C64.805,29.777 66.458,31.430 66.458,33.469 C66.458,35.507 64.805,37.160 62.766,37.160 ZM35.839,97.304 L40.613,102.076 L60.155,82.538 C61.597,81.096 63.935,81.096 65.376,82.538 C66.818,83.980 66.818,86.317 65.376,87.758 L43.223,109.907 C41.782,111.349 39.444,111.349 38.002,109.907 L30.618,102.524 C29.176,101.082 29.176,98.745 30.618,97.304 C32.060,95.862 34.398,95.862 35.839,97.304 ZM29.537,63.000 C29.537,60.961 31.190,59.309 33.229,59.309 L84.918,59.309 C86.957,59.309 88.610,60.961 88.610,63.000 C88.610,65.038 86.957,66.691 84.918,66.691 L33.229,66.691 C31.190,66.691 29.537,65.038 29.537,63.000 Z"/>
</svg>