<svg 
 xmlns="http://www.w3.org/2000/svg"
 xmlns:xlink="http://www.w3.org/1999/xlink">
<path fill-rule="evenodd"
 d="M164.485,55.322 C164.112,55.503 163.711,55.593 163.311,55.593 C162.718,55.593 162.130,55.396 161.647,55.014 L160.263,53.921 L160.263,133.607 L163.311,133.607 C164.796,133.607 166.000,134.814 166.000,136.304 C166.000,137.793 164.796,139.000 163.311,139.000 L2.689,139.000 C1.204,139.000 -0.000,137.793 -0.000,136.304 C-0.000,134.814 1.204,133.607 2.689,133.607 L5.736,133.607 L5.736,105.691 L4.353,106.784 C3.870,107.166 3.281,107.363 2.688,107.363 C2.289,107.363 1.888,107.274 1.515,107.092 C0.588,106.642 -0.000,105.699 -0.000,104.666 L-0.000,90.286 C-0.000,89.460 0.377,88.679 1.025,88.168 L36.196,60.382 C39.266,57.956 43.554,57.956 46.624,60.382 L71.706,80.197 L71.706,53.922 L70.323,55.015 C69.514,55.654 68.411,55.773 67.485,55.322 C66.558,54.871 65.970,53.929 65.970,52.896 L65.970,38.516 C65.970,37.689 66.347,36.909 66.994,36.398 L77.443,28.143 L77.443,9.755 C77.443,8.265 78.647,7.058 80.132,7.058 L91.605,7.058 C93.090,7.058 94.294,8.265 94.294,9.755 L94.294,14.830 L110.770,1.813 C113.840,-0.612 118.129,-0.613 121.199,1.813 L164.975,36.398 C165.622,36.909 166.000,37.689 166.000,38.516 L166.000,52.896 C166.000,53.929 165.411,54.871 164.485,55.322 ZM94.294,133.607 L106.125,133.607 L106.125,118.858 C106.066,118.862 106.006,118.867 105.946,118.867 C105.240,118.867 104.544,118.579 104.046,118.076 C103.544,117.577 103.257,116.879 103.257,116.171 C103.257,115.463 103.544,114.765 104.046,114.265 C104.544,113.762 105.240,113.474 105.946,113.474 C106.006,113.474 106.066,113.479 106.125,113.483 L106.125,98.734 L94.294,98.734 L94.294,133.607 ZM77.084,133.607 L88.916,133.607 L88.916,96.038 C88.916,94.549 90.120,93.342 91.605,93.342 L108.814,93.342 C110.299,93.342 111.503,94.549 111.503,96.038 L111.503,133.607 L154.885,133.607 L154.885,49.672 L115.985,18.939 L77.084,49.672 L77.084,133.607 ZM28.324,133.607 L54.497,133.607 L54.497,127.495 L28.324,127.495 L28.324,133.607 ZM28.324,122.103 L54.497,122.103 L54.497,115.991 L28.324,115.991 L28.324,122.103 ZM28.324,110.598 L54.497,110.598 L54.497,104.486 L28.324,104.486 L28.324,110.598 ZM11.114,133.608 L22.946,133.608 L22.946,101.790 C22.946,100.301 24.150,99.094 25.635,99.094 L57.186,99.094 C58.671,99.094 59.875,100.301 59.875,101.790 L59.875,133.608 L71.706,133.608 L71.706,101.443 L41.410,77.508 L11.114,101.443 L11.114,133.608 ZM43.296,64.617 C42.186,63.740 40.635,63.740 39.524,64.617 L5.378,91.594 L5.378,99.109 L39.746,71.957 C40.722,71.186 42.098,71.186 43.074,71.957 L71.706,94.577 L71.706,87.062 L43.296,64.617 ZM88.916,12.451 L82.821,12.451 L82.821,23.895 L88.916,19.079 L88.916,12.451 ZM160.622,39.824 L117.871,6.049 C116.761,5.172 115.209,5.172 114.099,6.049 L71.348,39.824 L71.348,47.339 L114.320,13.389 C114.809,13.003 115.396,12.810 115.985,12.810 C116.573,12.810 117.161,13.003 117.649,13.389 L160.622,47.339 L160.622,39.824 ZM108.814,81.478 L91.605,81.478 C90.120,81.478 88.916,80.270 88.916,78.781 L88.916,55.772 C88.916,54.283 90.120,53.076 91.605,53.076 L108.814,53.076 C110.299,53.076 111.503,54.283 111.503,55.772 L111.503,78.781 C111.503,80.270 110.299,81.478 108.814,81.478 ZM106.125,58.469 L94.294,58.469 L94.294,61.704 L106.125,61.704 L106.125,58.469 ZM106.125,67.097 L94.294,67.097 L94.294,76.085 L106.125,76.085 L106.125,67.097 ZM123.155,53.076 L140.365,53.076 C141.850,53.076 143.054,54.283 143.054,55.772 L143.054,78.781 C143.054,80.270 141.850,81.478 140.365,81.478 L123.155,81.478 C121.670,81.478 120.466,80.270 120.466,78.781 L120.466,55.772 C120.466,54.283 121.670,53.076 123.155,53.076 ZM125.844,76.085 L137.676,76.085 L137.676,67.097 L125.844,67.097 L125.844,76.085 ZM125.844,61.704 L137.676,61.704 L137.676,58.469 L125.844,58.469 L125.844,61.704 ZM123.155,93.342 L140.365,93.342 C141.850,93.342 143.054,94.549 143.054,96.038 L143.054,119.047 C143.054,120.536 141.850,121.743 140.365,121.743 L123.155,121.743 C121.670,121.743 120.466,120.536 120.466,119.047 L120.466,96.038 C120.466,94.549 121.670,93.342 123.155,93.342 ZM125.844,116.350 L137.676,116.350 L137.676,107.363 L125.844,107.363 L125.844,116.350 ZM125.844,101.970 L137.676,101.970 L137.676,98.734 L125.844,98.734 L125.844,101.970 Z"/>
</svg>