<svg xmlns="http://www.w3.org/2000/svg" viewBox="0 0 65.2 65.5"><title>1</title><path d="M63,56.7h0l-2,2A42.6,42.6,0,0,0,57.9,62a7.8,7.8,0,0,1-6.1,2.6H51c-4.8-.3-9.3-2.2-12.6-3.8A71.9,71.9,0,0,1,14.5,42,65.7,65.7,0,0,1,2.9,22.6,23.1,23.1,0,0,1,1.1,12.5,7.4,7.4,0,0,1,3.3,7.7L8.8,2.1A3.7,3.7,0,0,1,11.3,1a3.5,3.5,0,0,1,2.4,1.1h0l2.9,2.9,1.5,1.6,4.4,4.4c1.7,1.7,1.7,3.3,0,5l-1.4,1.4c-1.4,1.4-2.7,2.7-4.1,3.9H17a3.3,3.3,0,0,0-.8,3.7h0a35.5,35.5,0,0,0,5.2,8.5h0A59.4,59.4,0,0,0,35.8,47l2,1.1,1.6.9h.2a3.5,3.5,0,0,0,1.6.4,3.5,3.5,0,0,0,2.5-1.1l5.5-5.5a3.7,3.7,0,0,1,2.4-1.2A3.3,3.3,0,0,1,54,42.7l9,9c1.7,1.7,1.7,3.4,0,5.1Zm0,0" style="fill:none;stroke-miterlimit:10;"/><path d="M73.2,26" style="fill:none;stroke-miterlimit:10;"/><path d="M38.4,10.4h.8A14.4,14.4,0,0,1,53.6,24.8v.3" style="fill:none;stroke-linecap:round;stroke-miterlimit:10;"/><path d="M38,5.7H40A18.1,18.1,0,0,1,58.1,23.7q0,.8-.1,1.6" style="fill:none;stroke-linecap:round;stroke-miterlimit:10;"/></svg>