<svg 
 xmlns="http://www.w3.org/2000/svg"
 xmlns:xlink="http://www.w3.org/1999/xlink">
<path fill-rule="evenodd"
 d="M44.123,53.495 L42.247,53.495 L42.247,32.858 C42.247,31.822 41.406,30.982 40.371,30.982 L34.742,30.982 L34.742,17.849 C34.742,16.813 33.901,15.973 32.865,15.973 L12.225,15.973 L12.225,10.344 C12.225,9.845 12.027,9.368 11.677,9.016 L4.172,1.511 C3.437,0.783 2.251,0.783 1.515,1.515 C0.783,2.247 0.783,3.436 1.515,4.168 L8.473,11.125 L8.473,50.092 C6.292,50.869 4.720,52.932 4.720,55.375 C4.720,58.474 7.246,61.000 10.349,61.000 C12.792,61.000 14.856,59.428 15.633,57.247 L44.123,57.247 C45.159,57.247 46.000,56.407 46.000,55.371 C46.000,54.336 45.159,53.495 44.123,53.495 ZM12.225,19.725 L19.731,19.725 L19.731,21.601 C19.731,22.637 20.571,23.477 21.607,23.477 C22.643,23.477 23.484,22.637 23.484,21.601 L23.484,19.725 L30.989,19.725 L30.989,30.982 L12.225,30.982 L12.225,19.725 L12.225,19.725 ZM27.236,34.734 L27.236,38.486 L23.484,38.486 L23.484,34.734 L27.236,34.734 ZM10.349,57.247 C9.317,57.247 8.473,56.407 8.473,55.371 C8.473,54.336 9.317,53.495 10.349,53.495 C11.381,53.495 12.225,54.336 12.225,55.371 C12.225,56.407 11.381,57.247 10.349,57.247 ZM38.494,53.495 L15.633,53.495 C15.066,51.904 13.817,50.655 12.225,50.088 L12.225,34.734 L19.731,34.734 L19.731,40.362 C19.731,41.402 20.571,42.238 21.607,42.238 L29.113,42.238 C30.148,42.238 30.989,41.398 30.989,40.362 L30.989,34.734 L38.494,34.734 L38.494,53.495 L38.494,53.495 Z"/>
</svg>