<svg xmlns="http://www.w3.org/2000/svg" viewBox="0 0 390.9 183.9"><title>Vector Smart Object</title><path d="M281.6,87.9s-6.2-6.8.2-15.8,41.5-40,25.4-52.6C208.3-58.3,0,121.8,0,121.8S54.5,95.7,63.6,97.7c4.3,2.8-20.3,24.4-17.3,22.8S101,92.9,109,95.5s-21.3,24.3-21.3,24.3,51.6-22.4,57.1-21c7.9,2-16.5,20-16.5,20l65.1.2-54.8,64.8h101l9.7-12H206l6.6-8h44l8-11h-43l6.6-8h50.4s20-25.3,22.7-28c4.3-5,10.3-9.7,22-11.3,7-1.3,23.3-2.3,23.3-35.7,0,0,2.4-14.8,10.3-17.7,5.3-1.9,24.7-5.4,26.2,1,1,4.1.6,3.6.6,3.6s15-11.6,1.6-22.3C380,30.4,365,31.6,365,31.6s-3-7.7-4.3-8.3c-17.3-7.7-57.3-5-57.3-5l7.2,6.9s37.8-1.5,46.1,4.5c3.1,2.2,3.7,6.9,5.3,7,9.6.5,17.3.2,20.3,2.5,6.3,4.7,2.8,10.4,2.8,10.4-1-7-37.1-8.2-41.7,2.4-.5,1.2-7.3,38-18.6,43.5-13.4,6.6-23.7,3.5-46,34.5h-53l-34.3,42-24.7-.3,54.3-65-64,.3s18.9-13.2,14.4-18c-10.6-11.2-56.1,13.2-53.4,11.8s15.4-11,7.9-13.5C106.6,80.9,72,100.9,72,100.9s12-10,7.9-12.2C68.8,82.6,33,102.6,33,102.6S88.3,60.9,145.6,36.2,280.3,0,295.6,27.6c4.5,14-11.7,28.1-17.9,39.1C274.4,73.1,271,81.6,281.6,87.9Z"/><path d="M338.1,32.7s9.7-.5,9.8.8-.7,5.5-2.7,4.7S337.5,34.1,338.1,32.7Z"/></svg>