<svg 
 xmlns="http://www.w3.org/2000/svg"
 xmlns:xlink="http://www.w3.org/1999/xlink">
<path fill-rule="evenodd"
 d="M25.600,0.054 L25.600,-0.000 L24.000,-0.000 L22.400,-0.000 L22.400,0.054 C10.419,0.842 0.842,10.419 0.055,22.400 L-0.000,22.400 L-0.000,24.000 L-0.000,25.600 L0.055,25.600 C0.842,37.581 10.419,47.156 22.400,47.944 L22.400,48.000 L24.000,48.000 L25.600,48.000 L25.600,47.944 C37.581,47.156 47.156,37.581 47.944,25.600 L48.000,25.600 L48.000,24.000 L48.000,22.400 L47.944,22.400 C47.156,10.419 37.581,0.842 25.600,0.054 ZM15.023,5.231 C13.478,7.286 12.195,9.862 11.261,12.800 L6.467,12.800 C8.553,9.545 11.517,6.913 15.023,5.231 ZM4.793,16.000 L10.419,16.000 C9.991,18.022 9.719,20.170 9.631,22.400 L3.261,22.400 C3.430,20.147 3.961,17.993 4.793,16.000 ZM3.261,25.600 L9.631,25.600 C9.719,27.831 9.991,29.978 10.419,32.000 L4.793,32.000 C3.961,30.006 3.430,27.853 3.261,25.600 ZM6.467,35.200 L11.258,35.200 C12.192,38.137 13.475,40.713 15.023,42.769 C11.517,41.087 8.553,38.456 6.467,35.200 ZM22.400,44.593 C19.111,43.715 16.278,40.181 14.559,35.200 L22.400,35.200 L22.400,44.593 ZM22.400,32.000 L13.661,32.000 C13.209,30.006 12.925,27.853 12.831,25.600 L22.400,25.600 L22.400,32.000 ZM22.400,22.400 L12.831,22.400 C12.925,20.147 13.209,17.993 13.661,16.000 L22.400,16.000 L22.400,22.400 ZM22.400,12.800 L14.559,12.800 C16.278,7.817 19.111,4.284 22.400,3.407 L22.400,12.800 ZM41.531,12.800 L36.744,12.800 C35.806,9.862 34.525,7.286 32.975,5.231 C36.481,6.913 39.447,9.545 41.531,12.800 ZM25.600,3.407 C28.887,4.284 31.722,7.817 33.441,12.800 L25.600,12.800 L25.600,3.407 ZM25.600,16.000 L34.337,16.000 C34.791,17.993 35.072,20.147 35.168,22.400 L25.600,22.400 L25.600,16.000 ZM25.600,25.600 L35.168,25.600 C35.075,27.853 34.791,30.006 34.337,32.000 L25.600,32.000 L25.600,25.600 ZM25.600,44.593 L25.600,35.200 L33.441,35.200 C31.722,40.181 28.887,43.715 25.600,44.593 ZM32.975,42.769 C34.522,40.713 35.806,38.137 36.744,35.200 L41.531,35.200 C39.447,38.456 36.481,41.087 32.975,42.769 ZM43.206,32.000 L37.581,32.000 C38.009,29.978 38.281,27.831 38.369,25.600 L44.737,25.600 C44.568,27.853 44.037,30.006 43.206,32.000 ZM38.369,22.400 C38.281,20.170 38.009,18.022 37.581,16.000 L43.206,16.000 C44.037,17.993 44.568,20.147 44.737,22.400 L38.369,22.400 Z"/>
</svg>