<svg 
 xmlns="http://www.w3.org/2000/svg"
 xmlns:xlink="http://www.w3.org/1999/xlink">
<path fill-rule="evenodd"
 d="M116.083,19.916 C128.927,32.760 136.000,49.837 136.000,68.000 C136.000,86.163 128.927,103.240 116.083,116.083 C103.240,128.926 86.163,136.000 68.000,136.000 C49.836,136.000 32.760,128.926 19.916,116.083 C7.073,103.240 -0.000,86.163 -0.000,68.000 C-0.000,49.837 7.073,32.760 19.916,19.916 C32.760,7.073 49.836,-0.000 68.000,-0.000 C86.163,-0.000 103.240,7.073 116.083,19.916 ZM110.073,110.073 C118.448,101.698 124.016,91.265 126.312,79.916 C124.523,82.550 122.811,83.528 121.751,77.631 C120.659,68.017 111.829,74.158 106.276,70.743 C100.432,74.682 87.296,63.085 89.528,76.165 C92.973,82.065 108.123,68.269 100.572,80.753 C95.754,89.468 82.955,108.767 84.620,118.771 C84.830,133.347 69.727,121.811 64.524,116.976 C61.023,107.291 63.331,90.363 54.178,85.621 C44.243,85.189 35.716,84.286 31.866,73.180 C29.549,65.234 34.332,53.405 42.847,51.579 C55.311,43.748 59.764,60.750 71.453,61.066 C75.083,57.269 84.976,56.061 85.796,51.803 C78.126,50.449 95.527,45.354 85.062,42.455 C79.288,43.134 75.569,48.441 78.638,52.942 C67.450,55.550 67.092,36.751 56.337,42.681 C56.064,52.056 38.776,45.720 50.356,43.819 C54.334,42.081 43.866,37.044 49.522,37.959 C52.300,37.808 61.652,34.531 59.121,32.328 C64.328,29.095 68.704,40.069 73.802,32.078 C77.481,25.933 72.258,24.798 67.646,27.913 C65.045,25.001 72.237,18.713 78.580,15.995 C80.695,15.089 82.714,14.596 84.258,14.735 C87.453,18.426 93.362,19.066 93.671,14.291 C85.758,10.502 77.033,8.500 68.000,8.500 C55.034,8.500 42.703,12.620 32.498,20.239 C35.241,21.495 36.797,23.060 34.155,25.059 C32.102,31.176 23.773,39.387 16.461,38.224 C12.665,44.771 10.165,51.984 9.096,59.545 C15.220,61.571 16.632,65.581 15.316,66.922 C12.195,69.643 10.278,73.501 9.290,77.723 C11.283,89.920 17.016,101.161 25.927,110.073 C37.165,121.311 52.107,127.500 68.000,127.500 C83.893,127.500 98.835,121.311 110.073,110.073 Z"/>
</svg>