<svg 
 xmlns="http://www.w3.org/2000/svg"
 xmlns:xlink="http://www.w3.org/1999/xlink">
<path fill-rule="evenodd"
 d="M44.691,31.153 C45.531,36.456 47.003,42.072 49.444,44.115 C49.947,44.537 50.131,45.231 49.906,45.847 C49.681,46.462 49.094,46.875 48.437,46.875 L35.344,46.875 C32.376,48.847 28.823,50.000 25.001,50.000 C21.180,50.000 17.627,48.847 14.658,46.875 L1.566,46.875 C0.909,46.875 0.322,46.462 0.097,45.850 C-0.131,45.231 0.056,44.540 0.559,44.119 C3.000,42.072 4.472,36.456 5.312,31.156 C2.315,30.697 0.003,28.125 0.003,25.000 C0.003,21.553 2.806,18.750 6.253,18.750 C6.253,8.409 14.661,-0.000 25.001,-0.000 C35.341,-0.000 43.750,8.409 43.750,18.750 C47.197,18.750 50.000,21.553 50.000,25.000 C50.000,28.125 47.687,30.697 44.691,31.153 ZM3.128,25.000 C3.128,26.547 4.322,27.812 5.740,28.069 C6.037,25.590 6.193,23.378 6.250,21.897 C4.618,21.903 3.128,23.272 3.128,25.000 ZM4.778,43.750 L11.065,43.750 C9.393,41.884 8.087,39.691 7.262,37.272 C6.634,39.656 5.828,41.931 4.778,43.750 ZM25.001,3.125 C16.402,3.125 9.406,10.112 9.381,18.709 C26.804,18.272 28.126,10.825 28.139,10.747 C28.257,9.900 29.045,9.287 29.876,9.400 C30.723,9.503 31.329,10.250 31.242,11.097 C31.226,11.253 31.029,12.644 29.845,14.368 C31.876,15.834 35.219,17.397 40.569,18.200 C40.272,9.844 33.429,3.125 25.001,3.125 ZM40.625,21.331 C35.201,20.581 30.904,19.006 27.789,16.644 C24.851,19.153 19.374,21.587 9.378,21.828 L9.378,31.250 C9.378,39.865 16.386,46.875 25.001,46.875 C30.085,46.875 34.566,44.397 37.422,40.625 L29.401,40.625 C28.754,42.441 27.036,43.750 25.001,43.750 C22.417,43.750 20.314,41.647 20.314,39.062 C20.314,36.478 22.417,34.375 25.001,34.375 C27.036,34.375 28.754,35.684 29.401,37.500 L39.300,37.500 C40.144,35.581 40.625,33.475 40.625,31.250 L40.625,21.331 ZM26.564,39.062 C26.564,38.203 25.861,37.500 25.001,37.500 C24.142,37.500 23.439,38.203 23.439,39.062 C23.439,39.922 24.142,40.625 25.001,40.625 C25.861,40.625 26.564,39.922 26.564,39.062 ZM42.744,37.268 C42.469,38.075 42.141,38.853 41.763,39.606 C41.741,39.662 41.713,39.712 41.685,39.765 C40.945,41.214 40.018,42.548 38.941,43.747 L45.228,43.747 C44.178,41.928 43.372,39.656 42.744,37.268 ZM43.753,21.897 C43.809,23.375 43.969,25.590 44.263,28.069 C45.678,27.809 46.875,26.547 46.875,25.000 C46.875,23.272 45.381,21.906 43.753,21.897 ZM35.938,29.687 C35.076,29.687 34.376,28.987 34.376,28.125 C34.376,27.266 33.673,26.562 32.813,26.562 C31.954,26.562 31.251,27.266 31.251,28.125 C31.251,28.987 30.551,29.687 29.689,29.687 C28.826,29.687 28.126,28.987 28.126,28.125 C28.126,25.541 30.229,23.437 32.813,23.437 C35.398,23.437 37.501,25.541 37.501,28.125 C37.501,28.987 36.801,29.687 35.938,29.687 ZM20.314,29.687 C19.452,29.687 18.752,28.987 18.752,28.125 C18.752,27.266 18.049,26.562 17.189,26.562 C16.330,26.562 15.627,27.266 15.627,28.125 C15.627,28.987 14.927,29.687 14.065,29.687 C13.202,29.687 12.502,28.987 12.502,28.125 C12.502,25.541 14.605,23.437 17.189,23.437 C19.774,23.437 21.877,25.541 21.877,28.125 C21.877,28.987 21.177,29.687 20.314,29.687 Z"/>
</svg>