<svg 
 xmlns="http://www.w3.org/2000/svg"
 xmlns:xlink="http://www.w3.org/1999/xlink">
<path fill-rule="evenodd"
 d="M17.869,33.999 L2.130,33.999 C0.955,33.999 -0.000,33.023 -0.000,31.822 L-0.000,2.176 C-0.000,0.975 0.955,-0.001 2.130,-0.001 L17.869,-0.001 C19.044,-0.001 20.000,0.975 20.000,2.176 L20.000,31.822 C20.000,33.023 19.044,33.999 17.869,33.999 ZM18.579,2.176 C18.579,1.776 18.261,1.451 17.869,1.451 L2.130,1.451 C1.739,1.451 1.420,1.776 1.420,2.176 L1.420,31.822 C1.420,32.222 1.739,32.548 2.130,32.548 L17.869,32.548 C18.261,32.548 18.579,32.222 18.579,31.822 L18.579,2.176 ZM16.457,26.683 L3.543,26.683 C3.190,26.683 2.904,26.391 2.904,26.030 L2.904,6.024 C2.904,5.663 3.190,5.371 3.543,5.371 L16.457,5.371 C16.810,5.371 17.096,5.663 17.096,6.024 L17.096,26.030 C17.096,26.391 16.810,26.683 16.457,26.683 ZM15.818,6.677 L4.182,6.677 L4.182,25.377 L15.818,25.377 L15.818,6.677 ZM6.781,17.112 L10.192,13.626 C10.470,13.342 10.919,13.342 11.197,13.626 C11.474,13.909 11.474,14.369 11.197,14.652 L7.785,18.138 C7.647,18.279 7.465,18.350 7.283,18.350 C7.102,18.350 6.920,18.279 6.781,18.138 C6.504,17.855 6.504,17.395 6.781,17.112 ZM10.855,17.034 L12.214,15.646 C12.492,15.363 12.941,15.363 13.218,15.646 C13.496,15.929 13.496,16.389 13.218,16.672 L11.859,18.061 C11.721,18.203 11.539,18.274 11.357,18.274 C11.176,18.274 10.994,18.203 10.855,18.061 C10.578,17.778 10.578,17.318 10.855,17.034 ZM13.027,4.064 L9.752,4.064 C9.379,4.064 9.077,3.755 9.077,3.374 C9.077,2.994 9.379,2.685 9.752,2.685 L13.027,2.685 C13.400,2.685 13.702,2.994 13.702,3.374 C13.702,3.755 13.400,4.064 13.027,4.064 ZM7.681,4.115 C7.289,4.115 6.972,3.791 6.972,3.391 C6.972,2.992 7.289,2.667 7.681,2.667 C8.072,2.667 8.389,2.992 8.389,3.391 C8.389,3.791 8.072,4.115 7.681,4.115 ZM10.000,27.766 C11.018,27.766 11.846,28.612 11.846,29.652 C11.846,30.692 11.018,31.538 10.000,31.538 C8.982,31.538 8.154,30.692 8.154,29.652 C8.154,28.612 8.982,27.766 10.000,27.766 ZM10.000,30.232 C10.313,30.232 10.567,29.971 10.567,29.652 C10.567,29.332 10.313,29.072 10.000,29.072 C9.687,29.072 9.432,29.332 9.432,29.652 C9.432,29.971 9.687,30.232 10.000,30.232 Z"/>
</svg>