<svg 
 xmlns="http://www.w3.org/2000/svg"
 xmlns:xlink="http://www.w3.org/1999/xlink">
<path fill-rule="evenodd"
 d="M31.000,30.485 C31.000,33.585 22.963,35.000 15.500,35.000 C8.030,35.000 -0.000,33.585 -0.000,30.485 C-0.000,27.336 7.909,26.385 11.386,26.121 C8.456,21.228 4.753,14.350 4.753,10.814 C4.753,4.850 9.569,-0.000 15.493,-0.000 C21.416,-0.000 26.233,4.850 26.233,10.814 C26.233,14.350 22.530,21.228 19.600,26.121 C23.076,26.385 30.993,27.336 31.000,30.485 ZM24.757,10.814 C24.757,5.671 20.600,1.486 15.493,1.486 C10.392,1.486 6.235,5.671 6.235,10.814 C6.235,15.307 13.336,26.578 15.493,29.893 C17.649,26.578 24.757,15.307 24.757,10.814 ZM18.735,27.542 C17.323,29.835 16.259,31.471 16.110,31.650 C15.635,32.214 15.074,31.907 14.883,31.650 C14.741,31.457 13.670,29.835 12.258,27.542 C4.739,27.978 1.475,29.685 1.475,30.478 C1.475,31.507 6.420,33.507 15.493,33.507 C24.566,33.507 29.510,31.514 29.517,30.478 C29.517,29.678 26.254,27.978 18.735,27.542 ZM10.818,10.814 C10.818,8.214 12.911,6.107 15.493,6.107 C18.075,6.107 20.168,8.214 20.168,10.814 C20.168,13.414 18.075,15.521 15.493,15.521 C12.911,15.521 10.818,13.414 10.818,10.814 ZM18.692,10.814 C18.692,9.036 17.259,7.593 15.493,7.593 C13.726,7.593 12.293,9.036 12.293,10.814 C12.293,12.593 13.726,14.036 15.493,14.036 C17.259,14.036 18.692,12.593 18.692,10.814 Z"/>
</svg>