<svg 
 xmlns="http://www.w3.org/2000/svg"
 xmlns:xlink="http://www.w3.org/1999/xlink">
<path fill-rule="evenodd"
 d="M50.672,42.413 C50.280,42.923 49.617,43.152 48.995,42.980 L39.637,40.462 L37.147,49.817 C36.981,50.442 36.456,50.904 35.818,50.987 C35.748,50.997 35.675,51.000 35.608,51.000 C35.043,51.000 34.514,50.700 34.227,50.203 L25.503,35.101 L16.779,50.203 C16.492,50.700 15.963,51.000 15.398,51.000 C15.331,51.000 15.261,50.997 15.188,50.984 C14.550,50.901 14.025,50.439 13.859,49.814 L11.369,40.459 L2.011,42.977 C1.389,43.149 0.729,42.920 0.334,42.410 C-0.061,41.900 -0.106,41.201 0.216,40.640 L9.466,24.585 C8.510,22.424 7.971,20.040 7.971,17.531 C7.971,7.863 15.835,-0.000 25.503,-0.000 C35.171,-0.000 43.035,7.863 43.035,17.531 C43.035,20.040 42.496,22.424 41.540,24.588 L50.790,40.647 C51.112,41.205 51.064,41.903 50.672,42.413 ZM4.898,38.897 L12.083,36.965 C12.488,36.860 12.928,36.914 13.295,37.125 C13.661,37.338 13.929,37.689 14.037,38.097 L15.947,45.272 L22.044,34.718 C17.642,33.832 13.846,31.288 11.305,27.776 L4.898,38.897 ZM25.503,3.187 C17.595,3.187 11.159,9.623 11.159,17.531 C11.159,25.439 17.595,31.875 25.503,31.875 C33.411,31.875 39.847,25.439 39.847,17.531 C39.847,9.623 33.411,3.187 25.503,3.187 ZM39.700,27.779 C37.160,31.292 33.360,33.838 28.962,34.721 L35.059,45.275 L36.969,38.100 C37.077,37.689 37.345,37.338 37.711,37.128 C38.078,36.917 38.515,36.860 38.923,36.969 L46.107,38.900 L39.700,27.779 ZM31.687,18.844 L32.018,23.801 C32.057,24.352 31.805,24.885 31.352,25.206 C31.078,25.401 30.753,25.500 30.428,25.500 C30.217,25.500 30.004,25.458 29.803,25.372 L25.503,23.546 L21.203,25.372 C20.696,25.589 20.110,25.528 19.657,25.206 C19.204,24.885 18.953,24.352 18.988,23.801 L19.319,18.844 L16.288,15.051 C15.950,14.627 15.848,14.066 16.020,13.553 C16.192,13.040 16.606,12.651 17.132,12.514 L21.656,11.331 L24.135,7.156 C24.706,6.187 26.300,6.187 26.874,7.156 L29.354,11.331 L33.874,12.514 C34.396,12.651 34.814,13.040 34.983,13.553 C35.152,14.066 35.053,14.630 34.715,15.051 L31.687,18.844 ZM27.913,14.248 C27.508,14.143 27.161,13.878 26.947,13.521 L25.503,11.089 L24.059,13.521 C23.845,13.878 23.498,14.143 23.093,14.248 L20.310,14.978 L22.194,17.340 C22.443,17.652 22.567,18.044 22.539,18.440 L22.341,21.426 L24.878,20.346 C25.079,20.260 25.293,20.218 25.503,20.218 C25.713,20.218 25.927,20.260 26.128,20.346 L28.668,21.426 L28.467,18.440 C28.439,18.044 28.563,17.652 28.812,17.340 L30.696,14.978 L27.913,14.248 Z"/>
</svg>