<svg 
 xmlns="http://www.w3.org/2000/svg"
 xmlns:xlink="http://www.w3.org/1999/xlink">
<path fill-rule="evenodd"
 d="M55.958,29.218 C55.783,30.650 55.069,31.925 53.950,32.807 L39.149,44.553 C37.605,45.764 35.712,46.428 33.808,46.428 L10.499,46.428 L10.499,48.214 C10.499,49.200 9.715,50.000 8.749,50.000 L1.750,50.000 C0.784,50.000 -0.000,49.200 -0.000,48.214 L-0.000,23.214 C-0.000,22.228 0.784,21.428 1.750,21.428 L8.749,21.428 C9.715,21.428 10.499,22.228 10.499,23.214 L10.499,25.000 L29.748,25.003 C30.714,25.003 31.498,25.803 31.498,26.789 C31.498,30.286 30.074,33.443 27.795,35.714 L30.798,35.714 C32.342,35.714 33.861,35.178 35.068,34.207 L47.538,24.339 C48.619,23.475 49.981,23.068 51.370,23.253 C52.770,23.428 54.027,24.153 54.894,25.296 C55.748,26.403 56.130,27.800 55.958,29.218 ZM6.999,25.000 L3.500,25.000 L3.500,46.428 L6.999,46.428 L6.999,25.000 ZM52.137,27.496 C51.836,27.100 51.416,26.857 50.943,26.796 C50.499,26.753 50.051,26.868 49.697,27.154 L37.227,37.018 C35.411,38.475 33.126,39.286 30.798,39.286 L19.249,39.286 C18.283,39.286 17.499,38.486 17.499,37.500 C17.499,36.514 18.283,35.714 19.249,35.714 C23.473,35.714 27.011,32.643 27.823,28.575 L10.499,28.571 L10.499,42.857 L33.808,42.857 C34.942,42.857 36.083,42.457 37.010,41.728 L51.808,29.985 C52.189,29.682 52.427,29.253 52.487,28.775 C52.539,28.314 52.417,27.861 52.137,27.496 ZM47.247,21.428 C46.281,21.428 45.497,20.628 45.497,19.643 L45.497,3.571 L34.998,3.571 L34.998,12.500 C34.998,13.161 34.641,13.764 34.074,14.071 C33.815,14.214 33.532,14.286 33.248,14.286 C32.909,14.286 32.573,14.185 32.279,13.985 L27.998,11.075 L23.722,13.985 C23.179,14.350 22.493,14.385 21.923,14.071 C21.356,13.764 20.999,13.161 20.999,12.500 L20.999,3.571 L10.499,3.571 L10.499,16.071 C10.499,17.057 9.715,17.857 8.749,17.857 C7.783,17.857 6.999,17.057 6.999,16.071 L6.999,1.786 C6.999,0.800 7.783,-0.000 8.749,-0.000 L47.247,-0.000 C48.213,-0.000 48.997,0.800 48.997,1.786 L48.997,19.643 C48.997,20.628 48.213,21.428 47.247,21.428 ZM31.498,3.571 L24.499,3.571 L24.499,9.161 L27.025,7.443 C27.613,7.046 28.380,7.046 28.968,7.443 L31.498,9.161 L31.498,3.571 Z"/>
</svg>