<svg 
 xmlns="http://www.w3.org/2000/svg"
 xmlns:xlink="http://www.w3.org/1999/xlink">
<path fill-rule="evenodd" 
 d="M54.250,42.461 L52.178,42.461 C51.453,44.517 49.528,46.000 47.250,46.000 C44.971,46.000 43.046,44.517 42.322,42.461 L36.750,42.461 L20.678,42.461 C19.953,44.517 18.028,46.000 15.750,46.000 C13.471,46.000 11.546,44.517 10.822,42.461 L5.250,42.461 C4.284,42.461 3.500,41.669 3.500,40.692 L3.500,21.025 C1.340,18.789 -0.000,15.746 -0.000,12.384 C-0.000,5.555 5.495,-0.000 12.250,-0.000 C19.005,-0.000 24.500,5.555 24.500,12.384 C24.500,12.989 24.405,13.570 24.321,14.154 L36.750,14.154 C37.716,14.154 38.500,14.946 38.500,15.923 L38.500,21.231 L49.000,21.231 C49.616,21.231 50.186,21.556 50.501,22.091 L55.751,30.937 C55.916,31.209 56.000,31.524 56.000,31.846 L56.000,40.692 C56.000,41.669 55.216,42.461 54.250,42.461 ZM15.750,42.461 C16.712,42.461 17.500,41.669 17.500,40.692 C17.500,39.716 16.712,38.923 15.750,38.923 C14.787,38.923 14.000,39.716 14.000,40.692 C14.000,41.669 14.787,42.461 15.750,42.461 ZM12.250,3.538 C7.423,3.538 3.500,7.508 3.500,12.384 C3.500,17.261 7.423,21.231 12.250,21.231 C17.076,21.231 21.000,17.261 21.000,12.384 C21.000,7.508 17.076,3.538 12.250,3.538 ZM35.000,17.692 L23.271,17.692 C21.297,21.861 17.118,24.769 12.250,24.769 C10.363,24.769 8.596,24.299 7.000,23.527 L7.000,38.923 L10.822,38.923 C11.546,36.867 13.471,35.384 15.750,35.384 C18.028,35.384 19.953,36.867 20.678,38.923 L35.000,38.923 L35.000,17.692 ZM47.250,42.461 C48.212,42.461 49.000,41.669 49.000,40.692 C49.000,39.716 48.212,38.923 47.250,38.923 C46.287,38.923 45.500,39.716 45.500,40.692 C45.500,41.669 46.287,42.461 47.250,42.461 ZM52.500,32.338 L48.009,24.769 L38.500,24.769 L38.500,38.923 L42.322,38.923 C43.046,36.867 44.971,35.384 47.250,35.384 C49.528,35.384 51.453,36.867 52.178,38.923 L52.500,38.923 L52.500,32.338 ZM15.750,17.692 C15.302,17.692 14.854,17.519 14.511,17.175 L11.011,13.637 C10.685,13.305 10.500,12.855 10.500,12.384 L10.500,8.846 C10.500,7.869 11.284,7.077 12.250,7.077 C13.216,7.077 14.000,7.869 14.000,8.846 L14.000,11.652 L16.989,14.674 C17.671,15.364 17.671,16.486 16.989,17.175 C16.646,17.519 16.198,17.692 15.750,17.692 Z"/>
</svg>