<svg 
 xmlns="http://www.w3.org/2000/svg"
 xmlns:xlink="http://www.w3.org/1999/xlink">
<path fill-rule="evenodd"
 d="M147.070,150.000 L147.000,150.000 C145.382,150.000 144.071,148.688 144.071,147.070 C144.071,145.452 145.382,144.141 147.000,144.141 L147.070,144.141 C148.688,144.141 150.000,145.452 150.000,147.070 C150.000,148.688 148.688,150.000 147.070,150.000 ZM138.583,150.000 L133.593,150.000 L133.592,150.000 L133.592,150.000 L121.874,150.000 L104.296,150.000 L75.000,150.000 L63.281,150.000 L45.703,150.000 L16.406,150.000 L11.416,150.000 C9.798,150.000 8.486,148.688 8.486,147.070 C8.486,145.452 9.798,144.141 11.416,144.141 L13.476,144.141 L13.476,41.602 C13.476,39.985 14.788,38.672 16.406,38.672 L72.070,38.672 L72.070,2.929 C72.070,1.311 73.381,-0.000 75.000,-0.000 L133.592,-0.000 C135.210,-0.000 136.522,1.311 136.522,2.929 L136.522,144.141 L138.583,144.141 C140.201,144.141 141.513,145.452 141.513,147.070 C141.513,148.688 140.201,150.000 138.583,150.000 ZM48.632,144.141 L60.352,144.141 L60.352,132.423 L48.632,132.423 L48.632,144.141 ZM72.070,44.532 L19.336,44.532 L19.336,132.422 L25.498,132.422 C27.116,132.422 28.428,133.734 28.428,135.352 C28.428,136.970 27.116,138.282 25.498,138.282 L19.336,138.282 L19.336,144.141 L42.773,144.141 L42.773,129.493 C42.773,127.875 44.084,126.563 45.703,126.563 L63.281,126.563 C64.899,126.563 66.211,127.875 66.211,129.493 L66.211,144.141 L72.070,144.141 L72.070,44.532 ZM107.226,144.141 L118.944,144.141 L118.944,132.423 L107.226,132.423 L107.226,144.141 ZM130.662,5.859 L77.929,5.859 L77.929,41.602 L77.929,132.422 L84.091,132.422 C85.709,132.422 87.021,133.734 87.021,135.352 C87.021,136.970 85.709,138.282 84.091,138.282 L77.929,138.282 L77.929,144.141 L101.367,144.141 L101.367,129.493 C101.367,127.875 102.678,126.563 104.296,126.563 L121.874,126.563 C123.492,126.563 124.804,127.875 124.804,129.493 L124.804,144.141 L130.662,144.141 L130.662,5.859 ZM121.874,113.377 L117.480,113.377 C115.862,113.377 114.550,112.066 114.550,110.448 L114.550,106.054 C114.550,104.436 115.862,103.124 117.480,103.124 L121.874,103.124 C123.492,103.124 124.804,104.436 124.804,106.054 L124.804,110.448 C124.804,112.066 123.492,113.377 121.874,113.377 ZM121.874,95.800 L117.480,95.800 C115.862,95.800 114.550,94.488 114.550,92.871 L114.550,88.476 C114.550,86.858 115.862,85.547 117.480,85.547 L121.874,85.547 C123.492,85.547 124.804,86.858 124.804,88.476 L124.804,92.871 C124.804,94.489 123.492,95.800 121.874,95.800 ZM121.874,78.223 L117.480,78.223 C115.862,78.223 114.550,76.911 114.550,75.293 L114.550,70.898 C114.550,69.280 115.862,67.968 117.480,67.968 L121.874,67.968 C123.492,67.968 124.804,69.280 124.804,70.898 L124.804,75.293 C124.804,76.911 123.492,78.223 121.874,78.223 ZM121.874,60.644 L117.480,60.644 C115.862,60.644 114.550,59.332 114.550,57.715 L114.550,53.320 C114.550,51.702 115.862,50.391 117.480,50.391 L121.874,50.391 C123.492,50.391 124.804,51.702 124.804,53.320 L124.804,57.715 C124.804,59.332 123.492,60.644 121.874,60.644 ZM121.874,43.067 L117.480,43.067 C115.862,43.067 114.550,41.755 114.550,40.137 L114.550,35.743 C114.550,34.126 115.862,32.813 117.480,32.813 L121.874,32.813 C123.492,32.813 124.804,34.126 124.804,35.743 L124.804,40.137 C124.804,41.755 123.492,43.067 121.874,43.067 ZM121.874,25.490 L117.480,25.490 C115.862,25.490 114.550,24.178 114.550,22.560 L114.550,18.165 C114.550,16.547 115.862,15.235 117.480,15.235 L121.874,15.235 C123.492,15.235 124.804,16.547 124.804,18.165 L124.804,22.560 C124.804,24.178 123.492,25.490 121.874,25.490 ZM106.494,113.377 L102.099,113.377 C100.481,113.377 99.169,112.066 99.169,110.448 L99.169,106.054 C99.169,104.436 100.481,103.124 102.099,103.124 L106.494,103.124 C108.112,103.124 109.423,104.436 109.423,106.054 L109.423,110.448 C109.423,112.066 108.112,113.377 106.494,113.377 ZM106.494,95.800 L102.099,95.800 C100.481,95.800 99.169,94.488 99.169,92.871 L99.169,88.476 C99.169,86.858 100.481,85.547 102.099,85.547 L106.494,85.547 C108.112,85.547 109.423,86.858 109.423,88.476 L109.423,92.871 C109.423,94.489 108.112,95.800 106.494,95.800 ZM106.494,78.223 L102.099,78.223 C100.481,78.223 99.169,76.911 99.169,75.293 L99.169,70.898 C99.169,69.280 100.481,67.968 102.099,67.968 L106.494,67.968 C108.112,67.968 109.423,69.280 109.423,70.898 L109.423,75.293 C109.423,76.911 108.112,78.223 106.494,78.223 ZM106.494,60.644 L102.099,60.644 C100.481,60.644 99.169,59.332 99.169,57.715 L99.169,53.320 C99.169,51.702 100.481,50.391 102.099,50.391 L106.494,50.391 C108.112,50.391 109.423,51.702 109.423,53.320 L109.423,57.715 C109.423,59.332 108.112,60.644 106.494,60.644 ZM106.494,43.067 L102.099,43.067 C100.481,43.067 99.169,41.755 99.169,40.137 L99.169,35.743 C99.169,34.126 100.481,32.813 102.099,32.813 L106.494,32.813 C108.112,32.813 109.423,34.126 109.423,35.743 L109.423,40.137 C109.423,41.755 108.112,43.067 106.494,43.067 ZM106.494,25.490 L102.099,25.490 C100.481,25.490 99.169,24.178 99.169,22.560 L99.169,18.165 C99.169,16.547 100.481,15.235 102.099,15.235 L106.494,15.235 C108.112,15.235 109.423,16.547 109.423,18.165 L109.423,22.560 C109.423,24.178 108.112,25.490 106.494,25.490 ZM92.577,138.282 L92.508,138.282 C90.890,138.282 89.579,136.970 89.579,135.352 C89.579,133.734 90.890,132.422 92.508,132.422 L92.577,132.422 C94.195,132.422 95.507,133.734 95.507,135.352 C95.507,136.970 94.195,138.282 92.577,138.282 ZM91.113,113.377 L86.718,113.377 C85.100,113.377 83.789,112.066 83.789,110.448 L83.789,106.054 C83.789,104.436 85.100,103.124 86.718,103.124 L91.113,103.124 C92.731,103.124 94.042,104.436 94.042,106.054 L94.042,110.448 C94.042,112.066 92.731,113.377 91.113,113.377 ZM91.113,95.800 L86.718,95.800 C85.100,95.800 83.789,94.488 83.789,92.871 L83.789,88.476 C83.789,86.858 85.100,85.547 86.718,85.547 L91.113,85.547 C92.731,85.547 94.042,86.858 94.042,88.476 L94.042,92.871 C94.042,94.489 92.731,95.800 91.113,95.800 ZM91.113,78.223 L86.718,78.223 C85.100,78.223 83.789,76.911 83.789,75.293 L83.789,70.898 C83.789,69.280 85.100,67.968 86.718,67.968 L91.113,67.968 C92.731,67.968 94.042,69.280 94.042,70.898 L94.042,75.293 C94.042,76.911 92.731,78.223 91.113,78.223 ZM91.113,60.644 L86.718,60.644 C85.100,60.644 83.789,59.332 83.789,57.715 L83.789,53.320 C83.789,51.702 85.100,50.391 86.718,50.391 L91.113,50.391 C92.731,50.391 94.042,51.702 94.042,53.320 L94.042,57.715 C94.042,59.332 92.731,60.644 91.113,60.644 ZM91.113,43.067 L86.718,43.067 C85.100,43.067 83.789,41.755 83.789,40.137 L83.789,35.743 C83.789,34.126 85.100,32.813 86.718,32.813 L91.113,32.813 C92.731,32.813 94.042,34.126 94.042,35.743 L94.042,40.137 C94.042,41.755 92.731,43.067 91.113,43.067 ZM91.113,25.490 L86.718,25.490 C85.100,25.490 83.789,24.178 83.789,22.560 L83.789,18.165 C83.789,16.547 85.100,15.235 86.718,15.235 L91.113,15.235 C92.731,15.235 94.042,16.547 94.042,18.165 L94.042,22.560 C94.042,24.178 92.731,25.490 91.113,25.490 ZM63.281,113.377 L58.887,113.377 C57.269,113.377 55.957,112.066 55.957,110.448 L55.957,106.054 C55.957,104.436 57.269,103.124 58.887,103.124 L63.281,103.124 C64.899,103.124 66.211,104.436 66.211,106.054 L66.211,110.448 C66.211,112.066 64.899,113.377 63.281,113.377 ZM63.281,95.800 L58.887,95.800 C57.269,95.800 55.957,94.488 55.957,92.871 L55.957,88.476 C55.957,86.858 57.269,85.547 58.887,85.547 L63.281,85.547 C64.899,85.547 66.211,86.858 66.211,88.476 L66.211,92.871 C66.211,94.489 64.899,95.800 63.281,95.800 ZM63.281,78.223 L58.887,78.223 C57.269,78.223 55.957,76.911 55.957,75.293 L55.957,70.898 C55.957,69.280 57.269,67.968 58.887,67.968 L63.281,67.968 C64.899,67.968 66.211,69.280 66.211,70.898 L66.211,75.293 C66.211,76.911 64.899,78.223 63.281,78.223 ZM63.281,60.644 L58.887,60.644 C57.269,60.644 55.957,59.332 55.957,57.715 L55.957,53.320 C55.957,51.702 57.269,50.391 58.887,50.391 L63.281,50.391 C64.899,50.391 66.211,51.702 66.211,53.320 L66.211,57.715 C66.211,59.332 64.899,60.644 63.281,60.644 ZM47.900,113.377 L43.505,113.377 C41.888,113.377 40.576,112.066 40.576,110.448 L40.576,106.054 C40.576,104.436 41.888,103.124 43.505,103.124 L47.900,103.124 C49.518,103.124 50.830,104.436 50.830,106.054 L50.830,110.448 C50.830,112.066 49.518,113.377 47.900,113.377 ZM47.900,95.800 L43.505,95.800 C41.888,95.800 40.576,94.488 40.576,92.871 L40.576,88.476 C40.576,86.858 41.888,85.547 43.505,85.547 L47.900,85.547 C49.518,85.547 50.830,86.858 50.830,88.476 L50.830,92.871 C50.830,94.489 49.518,95.800 47.900,95.800 ZM47.900,78.223 L43.505,78.223 C41.888,78.223 40.576,76.911 40.576,75.293 L40.576,70.898 C40.576,69.280 41.888,67.968 43.505,67.968 L47.900,67.968 C49.518,67.968 50.830,69.280 50.830,70.898 L50.830,75.293 C50.830,76.911 49.518,78.223 47.900,78.223 ZM47.900,60.644 L43.505,60.644 C41.888,60.644 40.576,59.332 40.576,57.715 L40.576,53.320 C40.576,51.702 41.888,50.391 43.505,50.391 L47.900,50.391 C49.518,50.391 50.830,51.702 50.830,53.320 L50.830,57.715 C50.830,59.332 49.518,60.644 47.900,60.644 ZM33.984,138.282 L33.915,138.282 C32.297,138.282 30.985,136.970 30.985,135.352 C30.985,133.734 32.297,132.422 33.915,132.422 L33.984,132.422 C35.602,132.422 36.914,133.734 36.914,135.352 C36.914,136.970 35.602,138.282 33.984,138.282 ZM32.519,113.377 L28.125,113.377 C26.506,113.377 25.195,112.066 25.195,110.448 L25.195,106.054 C25.195,104.436 26.506,103.124 28.125,103.124 L32.519,103.124 C34.137,103.124 35.449,104.436 35.449,106.054 L35.449,110.448 C35.449,112.066 34.137,113.377 32.519,113.377 ZM32.519,95.800 L28.125,95.800 C26.506,95.800 25.195,94.488 25.195,92.871 L25.195,88.476 C25.195,86.858 26.506,85.547 28.125,85.547 L32.519,85.547 C34.137,85.547 35.449,86.858 35.449,88.476 L35.449,92.871 C35.449,94.489 34.137,95.800 32.519,95.800 ZM32.519,78.223 L28.125,78.223 C26.506,78.223 25.195,76.911 25.195,75.293 L25.195,70.898 C25.195,69.280 26.506,67.968 28.125,67.968 L32.519,67.968 C34.137,67.968 35.449,69.280 35.449,70.898 L35.449,75.293 C35.449,76.911 34.137,78.223 32.519,78.223 ZM32.519,60.644 L28.125,60.644 C26.506,60.644 25.195,59.332 25.195,57.715 L25.195,53.320 C25.195,51.702 26.506,50.391 28.125,50.391 L32.519,50.391 C34.137,50.391 35.449,51.702 35.449,53.320 L35.449,57.715 C35.449,59.332 34.137,60.644 32.519,60.644 ZM2.999,150.000 L2.930,150.000 C1.311,150.000 -0.000,148.688 -0.000,147.070 C-0.000,145.452 1.311,144.141 2.930,144.141 L2.999,144.141 C4.617,144.141 5.928,145.452 5.928,147.070 C5.928,148.688 4.616,150.000 2.999,150.000 Z"/>
</svg>