<svg xmlns="http://www.w3.org/2000/svg" viewBox="0 0 228.1 235.7"><title>viber</title><path d="M223,56.7v-.3c-5.5-22.2-30.3-46.1-53.1-51.1h-.3a294.9,294.9,0,0,0-111,0h-.3c-22.8,5-47.6,28.8-53.1,51.1v.3a217.4,217.4,0,0,0,0,93.6v.3c5.3,21.3,28.2,44.1,50.2,50.3v24.8a10,10,0,0,0,17.2,6.9l25.2-26.2c5.5.3,10.9.5,16.4.5a296.1,296.1,0,0,0,55.5-5.3h.3c22.8-5,47.6-28.8,53.1-51.1v-.3A217.4,217.4,0,0,0,223,56.7ZM64.4,225.9l2.4.3A2.3,2.3,0,0,1,64.4,225.9Zm104.4-78c-3.2,6.7-7.8,12.3-14.4,15.9-1.9,1-4.1,1.3-6.2,2s-4.8-1.2-6.9-2.1c-22.3-9.3-42.9-21.2-59.2-39.5C72.8,113.8,65.6,102,59.5,89.6c-2.9-5.9-5.4-12-7.8-18.1s1.1-11.3,4.6-15.5a36.4,36.4,0,0,1,12.2-9.2c3.6-1.7,7.2-.7,9.8,2.3A126.1,126.1,0,0,1,93.3,70.3c2.6,4.7,1.9,10.5-2.8,13.7-1.1.8-2.2,1.7-3.3,2.6a10.8,10.8,0,0,0-2.5,2.6,7.1,7.1,0,0,0-.5,6.2c5.8,16,15.6,28.4,31.7,35.1,2.6,1.1,5.2,2.3,8.1,2,5-.6,6.6-6,10.1-8.9a9.5,9.5,0,0,1,11.4-.5c3.7,2.3,7.2,4.8,10.7,7.3a122.3,122.3,0,0,1,10.1,7.7C169.5,140.8,170.6,144.3,168.8,148ZM140,95.9c-1.4,0-.9,0-.3,0a3.6,3.6,0,0,1-3.7-3.5,36.5,36.5,0,0,0-.7-4.7,13.1,13.1,0,0,0-4.8-7.6,12.7,12.7,0,0,0-3.9-1.9c-1.8-.5-3.7-.4-5.4-.8a3.3,3.3,0,0,1-2.7-3.9,3.5,3.5,0,0,1,3.7-2.8c11.3.8,19.4,6.7,20.6,20a9.2,9.2,0,0,1,0,2.8,2.9,2.9,0,0,1-2.4,2.4Zm-7-30.5a39.9,39.9,0,0,0-11-3.4l-5-.7a3.2,3.2,0,0,1-3-3.6,3.1,3.1,0,0,1,3.5-3.1,45.9,45.9,0,0,1,19.1,5c12.1,6.4,19,16.6,21.1,30.1.1.6.2,1.2.3,1.8s.2,3,.3,5a13.6,13.6,0,0,1-.3,2c-.8,2.9-5.2,3.3-6.2.3a8.9,8.9,0,0,1-.4-2.8,35.4,35.4,0,0,0-4.5-17.7A33,33,0,0,0,132.9,65.4Zm37.4,41.8c-2.3,0-3.4-1.9-3.5-4-.3-4.2-.5-8.3-1.1-12.5a52.2,52.2,0,0,0-42-43.6c-3.3-.6-6.6-.7-9.9-1.1s-4.8-.3-5.3-2.9a3.6,3.6,0,0,1,3.5-4h1.7c27.9.8,1.9.1.1,0,29.2.9,53.1,20.2,58.3,49.1.9,4.9,1.2,10,1.6,14.9C173.9,105.2,172.7,107.2,170.4,107.2Z"/></svg>