<svg xmlns="http://www.w3.org/2000/svg"><path fill-rule="evenodd" d="M122.759 70.145l-19.38 19.507v32.657A3.692 3.692 0 0 1 99.687 126H18.46a3.692 3.692 0 0 1-3.692-3.691v-11.321H3.692A3.692 3.692 0 0 1 0 107.297V3.691A3.692 3.692 0 0 1 3.692 0h81.226a3.692 3.692 0 0 1 3.692 3.691v13.617c.378.291.74.605 1.082.947l10.442 10.441a11.001 11.001 0 0 1 3.245 7.831v21.696l3.706-3.731c4.328-4.326 11.355-4.326 15.674-.009 4.318 4.318 4.318 11.344 0 15.662zM22.152 118.617h73.843V97.085l-9.531 9.594a3.693 3.693 0 0 1-1.775.992l-13.694 3.219c-2.658.625-5.074-1.77-4.437-4.448l3.251-13.66a3.7 3.7 0 0 1 .973-1.747l25.213-25.379V44.543H77.534a3.692 3.692 0 0 1-3.692-3.692V22.394h-51.69v96.223zm61.239-19.321a11.103 11.103 0 0 0-2.158-3.049 11.111 11.111 0 0 0-3.069-2.166l-1.411 1.42-1.627 6.834 6.844-1.609 1.421-1.43zM81.226 7.383H7.384v96.222h7.384V18.703a3.691 3.691 0 0 1 3.692-3.691h62.766V7.383zm14.769 29.144c0-.986-.384-1.913-1.082-2.61L84.471 23.475a3.671 3.671 0 0 0-2.611-1.081h-.634V37.16h14.769v-.633zm8.515 31.034L83.549 88.66a18.577 18.577 0 0 1 2.906 2.366c.871.872 1.65 1.825 2.326 2.844l20.951-21.089-5.222-5.22zm13.027-7.857a3.696 3.696 0 0 0-5.221 0l-2.602 2.619 5.222 5.22 2.593-2.61a3.697 3.697 0 0 0 .008-5.229zm-54.771-7.778H33.229a3.692 3.692 0 0 1 0-7.383h29.537a3.692 3.692 0 1 1 0 7.383zm0-14.766H33.229a3.692 3.692 0 1 1 0-7.383h29.537a3.692 3.692 0 0 1 0 7.383zM35.839 97.304l4.774 4.772 19.542-19.538a3.691 3.691 0 1 1 5.221 5.22l-22.153 22.149a3.691 3.691 0 0 1-5.221 0l-7.384-7.383a3.691 3.691 0 1 1 5.221-5.22zM29.537 63a3.691 3.691 0 0 1 3.692-3.691h51.689a3.691 3.691 0 1 1 0 7.382H33.229A3.692 3.692 0 0 1 29.537 63z"/></svg>