<svg xmlns="http://www.w3.org/2000/svg"><path fill-rule="evenodd" d="M164.485 55.322a2.686 2.686 0 0 1-2.838-.308l-1.384-1.093v79.686h3.048a2.693 2.693 0 0 1 2.689 2.697 2.693 2.693 0 0 1-2.689 2.696H2.689A2.693 2.693 0 0 1 0 136.304a2.693 2.693 0 0 1 2.689-2.697h3.047v-27.916l-1.383 1.093a2.684 2.684 0 0 1-2.838.308A2.695 2.695 0 0 1 0 104.666v-14.38c0-.826.377-1.607 1.025-2.118l35.171-27.786a8.38 8.38 0 0 1 10.428 0l25.082 19.815V53.922l-1.383 1.093a2.683 2.683 0 0 1-2.838.307 2.697 2.697 0 0 1-1.515-2.426v-14.38c0-.827.377-1.607 1.024-2.118l10.449-8.255V9.755a2.693 2.693 0 0 1 2.689-2.697h11.473a2.693 2.693 0 0 1 2.689 2.697v5.075L110.77 1.813a8.383 8.383 0 0 1 10.429 0l43.776 34.585A2.698 2.698 0 0 1 166 38.516v14.38a2.698 2.698 0 0 1-1.515 2.426zm-70.191 78.285h11.831v-14.749c-.059.004-.119.009-.179.009a2.696 2.696 0 0 1 0-5.393c.06 0 .12.005.179.009V98.734H94.294v34.873zm-17.21 0h11.832V96.038a2.693 2.693 0 0 1 2.689-2.696h17.209a2.693 2.693 0 0 1 2.689 2.696v37.569h43.382V49.672l-38.9-30.733-38.901 30.733v83.935zm-48.76 0h26.173v-6.112H28.324v6.112zm0-11.504h26.173v-6.112H28.324v6.112zm0-11.505h26.173v-6.112H28.324v6.112zm-17.21 23.01h11.832V101.79a2.693 2.693 0 0 1 2.689-2.696h31.551a2.693 2.693 0 0 1 2.689 2.696v31.818h11.831v-32.165L41.41 77.508l-30.296 23.935v32.165zm32.182-68.991a3.033 3.033 0 0 0-3.772 0L5.378 91.594v7.515l34.368-27.152a2.683 2.683 0 0 1 3.328 0l28.632 22.62v-7.515l-28.41-22.445zm45.62-52.166h-6.095v11.444l6.095-4.816v-6.628zm71.706 27.373L117.871 6.049a3.033 3.033 0 0 0-3.772 0L71.348 39.824v7.515l42.972-33.95a2.68 2.68 0 0 1 3.329 0l42.973 33.95v-7.515zm-51.808 41.654H91.605a2.693 2.693 0 0 1-2.689-2.697V55.772a2.693 2.693 0 0 1 2.689-2.696h17.209a2.693 2.693 0 0 1 2.689 2.696v23.009a2.693 2.693 0 0 1-2.689 2.697zm-2.689-23.009H94.294v3.235h11.831v-3.235zm0 8.628H94.294v8.988h11.831v-8.988zm17.03-14.021h17.21a2.693 2.693 0 0 1 2.689 2.696v23.009a2.693 2.693 0 0 1-2.689 2.697h-17.21a2.693 2.693 0 0 1-2.689-2.697V55.772a2.693 2.693 0 0 1 2.689-2.696zm2.689 23.009h11.832v-8.988h-11.832v8.988zm0-14.381h11.832v-3.235h-11.832v3.235zm-2.689 31.638h17.21a2.693 2.693 0 0 1 2.689 2.696v23.009a2.693 2.693 0 0 1-2.689 2.696h-17.21a2.693 2.693 0 0 1-2.689-2.696V96.038a2.693 2.693 0 0 1 2.689-2.696zm2.689 23.008h11.832v-8.987h-11.832v8.987zm0-14.38h11.832v-3.236h-11.832v3.236z"/></svg>