<svg xmlns="http://www.w3.org/2000/svg" viewBox="0 0 65.2 65.5"><title>1</title><path d="M63 56.7l-2 2a42.6 42.6 0 0 0-3.1 3.3 7.8 7.8 0 0 1-6.1 2.6H51c-4.8-.3-9.3-2.2-12.6-3.8A71.9 71.9 0 0 1 14.5 42 65.7 65.7 0 0 1 2.9 22.6a23.1 23.1 0 0 1-1.8-10.1 7.4 7.4 0 0 1 2.2-4.8l5.5-5.6A3.7 3.7 0 0 1 11.3 1a3.5 3.5 0 0 1 2.4 1.1L16.6 5l1.5 1.6 4.4 4.4c1.7 1.7 1.7 3.3 0 5l-1.4 1.4c-1.4 1.4-2.7 2.7-4.1 3.9a3.3 3.3 0 0 0-.8 3.7 35.5 35.5 0 0 0 5.2 8.5A59.4 59.4 0 0 0 35.8 47l2 1.1 1.6.9h.2a3.5 3.5 0 0 0 1.6.4 3.5 3.5 0 0 0 2.5-1.1l5.5-5.5a3.7 3.7 0 0 1 2.4-1.2 3.3 3.3 0 0 1 2.4 1.1l9 9c1.7 1.7 1.7 3.4 0 5.1zM38.4 10.4h.8a14.4 14.4 0 0 1 14.4 14.4v.3" fill="none"/><path d="M38 5.7h2a18.1 18.1 0 0 1 18.1 18q0 .8-.1 1.6" fill="none"/></svg>