<svg xmlns="http://www.w3.org/2000/svg" viewBox="0 0 396.5 397"><title>call</title><path d="M308.3 243.8c-7.8-8.1-17.1-12.4-27-12.4s-19.3 4.2-27.4 12.3l-25.3 25.2-6.2-3.2c-2.9-1.4-5.6-2.8-7.9-4.2-23.7-15-45.2-34.6-65.8-60-10-12.6-16.7-23.3-21.6-34.1 6.6-6 12.6-12.2 18.6-18.2l6.7-6.8c16.8-16.8 16.8-38.6 0-55.4l-21.9-21.8c-2.5-2.5-5-5-7.4-7.6-4.8-5-9.8-10.1-15-14.9C100.3 35 91 30.9 81.3 30.9S62.1 35 54.1 42.7l-.2.2-27.2 27.4a58.5 58.5 0 0 0-17.4 37.2c-1.9 23.4 5 45.1 10.2 59.4 13 35 32.3 67.4 61.2 102.1 35 41.8 77.2 74.9 125.4 98.2 18.4 8.7 43 19 70.4 20.8l5 .2c18.5 0 34-6.6 46.2-19.8l.3-.4a181.2 181.2 0 0 1 14-14.5c3.4-3.3 7-6.7 10.4-10.3 7.9-8.2 12.1-17.8 12.1-27.7s-4.2-19.4-12.3-27.4zm28.6 84.2c-3.1 3.4-6.3 6.4-9.8 9.8a210.3 210.3 0 0 0-15.4 16c-8.1 8.6-17.6 12.7-30.1 12.7H278c-23.8-1.5-45.8-10.8-62.4-18.7a355.4 355.4 0 0 1-118.1-92.6C70.2 222.4 52 192 39.9 159.3c-7.4-19.9-10.2-35.4-9-50.1A36.7 36.7 0 0 1 42 85.5l27.3-27.3c3.9-3.7 8.1-5.7 12.2-5.7s9.1 3 11.7 5.6l.2.2c4.9 4.6 9.5 9.3 14.4 14.3l7.6 7.8 21.8 21.8c8.5 8.5 8.5 16.3 0 24.8l-6.9 6.9c-6.7 6.9-13.1 13.3-20.1 19.5l-.4.4c-6.9 6.9-5.6 13.6-4.2 18.2l.2.7c5.7 13.8 13.7 26.7 25.8 42.2h.1c22.1 27.2 45.4 48.4 71 64.6a108.1 108.1 0 0 0 9.8 5.4c2.9 1.4 5.6 2.8 7.9 4.2l1 .6a17.3 17.3 0 0 0 7.9 2c6.6 0 10.8-4.2 12.2-5.5l27.5-27.3c2.7-2.7 7-6 12.1-6s9 3.1 11.5 5.8l44.2 44.3c8.2 8.2 8.2 16.6.1 25zM213.6 99.2a103 103 0 0 1 83.8 83.8 10.7 10.7 0 0 0 10.6 9l1.8-.2a10.8 10.8 0 0 0 8.9-12.5A124.5 124.5 0 0 0 217.3 77.9a10.9 10.9 0 0 0-12.5 8.8 10.7 10.7 0 0 0 8.7 12.5zm173.7 77a205 205 0 0 0-167-167 10.8 10.8 0 1 0-3.5 21.3 183.1 183.1 0 0 1 149.3 149.2 10.7 10.7 0 0 0 10.6 9l1.8-.2a10.6 10.6 0 0 0 8.8-12.3zm0 0"/></svg>