<svg xmlns="http://www.w3.org/2000/svg" viewBox="0 0 379.7 407.3" stroke-miterlimit="10" stroke-width="18"><title>cart</title><path d="M112.1 265.3h214.5a44.3 44.3 0 0 0 44.2-44.2v-91.2a1 1 0 0 0-.1-.5c0-.2-.1-.4-.1-.6s-.1-.3-.1-.5a4.4 4.4 0 0 1-.2-.6l-.2-.5-.2-.5-.2-.6-.2-.4-.2-.5-.2-.4-.3-.5-.3-.4-.3-.4-.3-.4-.3-.3-.4-.4-.4-.3-.5-.3-.4-.2-.5-.3-1-.5-.5-.2-.5-.2-.6-.2h-1.4L89.6 82.7v-38a5.1 5.1 0 0 0-.1-1.1.6.6 0 0 0-.1-.3c0-.2-.1-.5-.1-.7l-.2-.6c0-.2-.1-.2-.1-.4l-.2-.7v-.3l-.3-.6-.2-.3-.3-.5-.2-.4-.2-.4-.3-.5-.7-.7-.2-.2-.6-.5-.3-.2-.5-.4-.6-.4-.2-.2-1-.5L24 9.9a10.8 10.8 0 1 0-8.4 19.9l52.3 22.1v236.6a44.2 44.2 0 0 0 38.5 43.8 43.6 43.6 0 1 0 81 22.4 42.8 42.8 0 0 0-6-22h97.1a43 43 0 0 0-6 22 43.6 43.6 0 1 0 43.6-43.6h-204a22.6 22.6 0 0 1-22.6-22.6v-29.3a44.7 44.7 0 0 0 22.6 6.1zm53.8 89.3a22 22 0 1 1-22-22 22 22 0 0 1 22 22zm172.3 0a22 22 0 1 1-22-22 22 22 0 0 1 22 22zm-11.6-110.9H112.1a22.6 22.6 0 0 1-22.6-22.6V104.4l259.6 35.8v80.9a22.6 22.6 0 0 1-22.6 22.6zm0 0"/></svg>