<svg xmlns="http://www.w3.org/2000/svg"><path fill-rule="evenodd" d="M44.123 53.495h-1.876V32.858a1.877 1.877 0 0 0-1.876-1.876h-5.629V17.849a1.877 1.877 0 0 0-1.877-1.876h-20.64v-5.629c0-.499-.198-.976-.548-1.328L4.172 1.511a1.886 1.886 0 0 0-2.657.004 1.877 1.877 0 0 0 0 2.653l6.958 6.957v38.967c-2.181.777-3.753 2.84-3.753 5.283A5.636 5.636 0 0 0 10.349 61c2.443 0 4.507-1.572 5.284-3.753h28.49a1.877 1.877 0 1 0 0-3.752zm-31.898-33.77h7.506v1.876a1.876 1.876 0 0 0 3.753 0v-1.876h7.505v11.257H12.225V19.725zm15.011 15.009v3.752h-3.752v-3.752h3.752zM10.349 57.247a1.879 1.879 0 0 1-1.876-1.876 1.88 1.88 0 0 1 1.876-1.876 1.88 1.88 0 0 1 1.876 1.876 1.879 1.879 0 0 1-1.876 1.876zm28.145-3.752H15.633a5.614 5.614 0 0 0-3.408-3.407V34.734h7.506v5.628c0 1.04.84 1.876 1.876 1.876h7.506c1.035 0 1.876-.84 1.876-1.876v-5.628h7.505v18.761z"/></svg>