<svg xmlns="http://www.w3.org/2000/svg"><path fill-rule="evenodd" d="M25.6.054V0h-3.2v.054C10.419.842.842 10.419.055 22.4H0v3.2h.055C.842 37.581 10.419 47.156 22.4 47.944V48h3.2v-.056c11.981-.788 21.556-10.363 22.344-22.344H48v-3.2h-.056C47.156 10.419 37.581.842 25.6.054zM15.023 5.231c-1.545 2.055-2.828 4.631-3.762 7.569H6.467a20.925 20.925 0 0 1 8.556-7.569zM4.793 16h5.626a38.25 38.25 0 0 0-.788 6.4h-6.37c.169-2.253.7-4.407 1.532-6.4zm-1.532 9.6h6.37c.088 2.231.36 4.378.788 6.4H4.793a20.604 20.604 0 0 1-1.532-6.4zm3.206 9.6h4.791c.934 2.937 2.217 5.513 3.765 7.569A20.918 20.918 0 0 1 6.467 35.2zM22.4 44.593c-3.289-.878-6.122-4.412-7.841-9.393H22.4v9.393zM22.4 32h-8.739a35.801 35.801 0 0 1-.83-6.4H22.4V32zm0-9.6h-9.569a35.79 35.79 0 0 1 .83-6.4H22.4v6.4zm0-9.6h-7.841c1.719-4.983 4.552-8.516 7.841-9.393V12.8zm19.131 0h-4.787c-.938-2.938-2.219-5.514-3.769-7.569a20.912 20.912 0 0 1 8.556 7.569zM25.6 3.407c3.287.877 6.122 4.41 7.841 9.393H25.6V3.407zM25.6 16h8.737c.454 1.993.735 4.147.831 6.4H25.6V16zm0 9.6h9.568a35.529 35.529 0 0 1-.831 6.4H25.6v-6.4zm0 18.993V35.2h7.841c-1.719 4.981-4.554 8.515-7.841 9.393zm7.375-1.824c1.547-2.056 2.831-4.632 3.769-7.569h4.787a20.905 20.905 0 0 1-8.556 7.569zM43.206 32h-5.625c.428-2.022.7-4.169.788-6.4h6.368a20.63 20.63 0 0 1-1.531 6.4zm-4.837-9.6a38.25 38.25 0 0 0-.788-6.4h5.625a20.624 20.624 0 0 1 1.531 6.4h-6.368z"/></svg>