<svg xmlns="http://www.w3.org/2000/svg"><path fill-rule="evenodd" d="M116.083 19.916C128.927 32.76 136 49.837 136 68c0 18.163-7.073 35.24-19.917 48.083C103.24 128.926 86.163 136 68 136c-18.164 0-35.24-7.074-48.084-19.917C7.073 103.24 0 86.163 0 68c0-18.163 7.073-35.24 19.916-48.084C32.76 7.073 49.836 0 68 0c18.163 0 35.24 7.073 48.083 19.916zm-6.01 90.157c8.375-8.375 13.943-18.808 16.239-30.157-1.789 2.634-3.501 3.612-4.561-2.285-1.092-9.614-9.922-3.473-15.475-6.888-5.844 3.939-18.98-7.658-16.748 5.422 3.445 5.9 18.595-7.896 11.044 4.588-4.818 8.715-17.617 28.014-15.952 38.018.21 14.576-14.893 3.04-20.096-1.795-3.501-9.685-1.193-26.613-10.346-31.355-9.935-.432-18.462-1.335-22.312-12.441-2.317-7.946 2.466-19.775 10.981-21.601 12.464-7.831 16.917 9.171 28.606 9.487 3.63-3.797 13.523-5.005 14.343-9.263-7.67-1.354 9.731-6.449-.734-9.348-5.774.679-9.493 5.986-6.424 10.487C67.45 55.55 67.092 36.751 56.337 42.681c-.273 9.375-17.561 3.039-5.981 1.138 3.978-1.738-6.49-6.775-.834-5.86 2.778-.151 12.13-3.428 9.599-5.631 5.207-3.233 9.583 7.741 14.681-.25 3.679-6.145-1.544-7.28-6.156-4.165-2.601-2.912 4.591-9.2 10.934-11.918 2.115-.906 4.134-1.399 5.678-1.26 3.195 3.691 9.104 4.331 9.413-.444C85.758 10.502 77.033 8.5 68 8.5c-12.966 0-25.297 4.12-35.502 11.739 2.743 1.256 4.299 2.821 1.657 4.82-2.053 6.117-10.382 14.328-17.694 13.165a58.858 58.858 0 0 0-7.365 21.321c6.124 2.026 7.536 6.036 6.22 7.377-3.121 2.721-5.038 6.579-6.026 10.801 1.993 12.197 7.726 23.438 16.637 32.35C37.165 121.311 52.107 127.5 68 127.5s30.835-6.189 42.073-17.427z"/></svg>