<svg xmlns="http://www.w3.org/2000/svg" viewBox="0 0 146.2 193.7"><title>logo</title><path d="M73.5 144V75.1l-23.6 33.5zm9 16.4a3.9 3.9 0 0 0-3 1.2 5.3 5.3 0 0 0-1 3.6v.3h8v-.3a5.4 5.4 0 0 0-1-3.7 3.8 3.8 0 0 0-3-1.1zm39.6 7.3a9 9 0 0 0-3.8-.6h-2.8v5.6h2.8a9 9 0 0 0 3.8-.6 2.2 2.2 0 0 0 1.3-2.2v-.2a2.2 2.2 0 0 0-1.3-2zM134.5 0H11.8A11.8 11.8 0 0 0 0 11.8V182a11.8 11.8 0 0 0 11.8 11.8h122.7a11.8 11.8 0 0 0 11.7-11.8V11.8A11.8 11.8 0 0 0 134.5 0zM73.7 12.7a27.1 27.1 0 0 1 17.6 47.7l-2.5-4.5a22 22 0 1 0-20.5 5.3v5.2a27.1 27.1 0 0 1 5.5-53.6zm0 15.2a11.9 11.9 0 0 0-5.5 22.5v5.5a17 17 0 1 1 18-4.6l-2.6-4.8a11.9 11.9 0 0 0-9.9-18.6zm-47 132.3a.4.4 0 0 1-.2.4h-.4l-1.8-.2h-1.9a3.4 3.4 0 0 0-2.8 1.2 6 6 0 0 0-1 3.8v2.4a6.1 6.1 0 0 0 1 3.8 3.4 3.4 0 0 0 2.8 1.2h1.9l1.8-.2h.4a.4.4 0 0 1 .2.4v1.1a.7.7 0 0 1-.1.5l-.5.2-1.7.2h-2a6.7 6.7 0 0 1-2.7-.5 5.7 5.7 0 0 1-2-1.5 6.3 6.3 0 0 1-1.3-2.3 10.2 10.2 0 0 1-.4-3v-2.4a10.2 10.2 0 0 1 .4-3 6.5 6.5 0 0 1 1.2-2.3 5.6 5.6 0 0 1 2-1.5 6.8 6.8 0 0 1 2.8-.5h2l1.7.2.5.2a.7.7 0 0 1 .1.5zm16.8 14.2a.6.6 0 0 1-.2.4l-.4.2h-1.5l-.4-.2a.6.6 0 0 1-.2-.4v-11.8c0-.1 0-.2-.1 0l-7 11.9-.4.4H31a.9.9 0 0 1-.9-.9v-15.1c0-.4.2-.6.5-.6h2a.6.6 0 0 1 .2.4v11.9h.1l7.1-11.7a1.1 1.1 0 0 1 .5-.5h2.3l.6.2a1.1 1.1 0 0 1 .2.7zM58 160.2a.4.4 0 0 1-.2.4h-.4l-1.8-.2h-2a3.4 3.4 0 0 0-2.8 1.2 6 6 0 0 0-1 3.8v2.4a6.1 6.1 0 0 0 1 3.8 3.4 3.4 0 0 0 2.8 1.2h1.9l1.8-.2h.4a.4.4 0 0 1 .2.4v1.1a.7.7 0 0 1-.1.5l-.5.2-1.7.2h-2a6.7 6.7 0 0 1-2.7-.5 5.7 5.7 0 0 1-2-1.5 6.3 6.3 0 0 1-1.3-2.3 10.2 10.2 0 0 1-.4-3v-2.4a10.2 10.2 0 0 1 .4-3 6.5 6.5 0 0 1 1.2-2.3 5.6 5.6 0 0 1 2-1.5 6.8 6.8 0 0 1 2.8-.5h2l1.7.2.5.2a.7.7 0 0 1 .1.5zm16.3-.3a.6.6 0 0 1-.2.4l-.4.2h-5v13.9a.6.6 0 0 1-.2.4l-.4.2h-1.5l-.4-.2a.6.6 0 0 1-.2-.4v-13.9h-5l-.4-.2a.6.6 0 0 1-.2-.4v-1a.6.6 0 0 1 .2-.4l.4-.2h12.6l.4.2a.6.6 0 0 1 .2.4zm14.9 6.9q0 .7-.6.7H78.4v.4a5.5 5.5 0 0 0 1.1 3.8 4.1 4.1 0 0 0 3.2 1.1h2.8l2.6-.2h.5a.4.4 0 0 1 .2.4v1a.8.8 0 0 1-.1.5l-.5.2-2.6.4h-2.9a9.4 9.4 0 0 1-2.5-.3 5.6 5.6 0 0 1-2.2-1.2 6 6 0 0 1-1.5-2.2 9.1 9.1 0 0 1-.6-3.5v-2.7a7.4 7.4 0 0 1 1.7-5.2 6.4 6.4 0 0 1 5-1.9 7.8 7.8 0 0 1 2.9.5 5.5 5.5 0 0 1 2.1 1.4 6.1 6.1 0 0 1 1.3 2.2 9.5 9.5 0 0 1 .4 2.9zM108 87.9q-3.2-2.2-9.5-2.2h-8.1v58.6a2 2 0 0 1-2 2H55.6a2 2 0 0 1-1.3-.4l-.8-1-20.3-33v32.4a2 2 0 0 1-2 2H18.1a2 2 0 0 1-2-2v-70a1.8 1.8 0 0 1 .6-1.3 2 2 0 0 1 1.4-.5h13.1a2 2 0 0 1 1.4.5 1.8 1.8 0 0 1 .6 1.3V106l22-32.5a2.4 2.4 0 0 1 2.2-1.2h16.1V45.1a5.3 5.3 0 1 1 2.6-.7l15 27.2 7.2-.2a55.7 55.7 0 0 1 11.1 1.1 26.8 26.8 0 0 1 9.6 3.9 20.8 20.8 0 0 1 6.8 7.4 23.9 23.9 0 0 1 2.6 11.6v.9a23.9 23.9 0 0 1-2.6 11.6 20.8 20.8 0 0 1-6.8 7.4 27.5 27.5 0 0 1-9.6 3.9 51.9 51.9 0 0 1-10.1 1.1l-7.5-14.2h6.6q6.7 0 9.7-2.5t3-7.6v-.9q.1-4.9-3.1-7.2zm.8 86.5a.6.6 0 0 1-.2.4l-.4.2h-1.4l-.4-.2a.6.6 0 0 1-.2-.4v-12.8l-3.5 6.4-.5.5-.8.2h-1.2l-.8-.2-.5-.5-3.5-6.4v12.8a.6.6 0 0 1-.2.4l-.4.2h-1.4l-.4-.2a.6.6 0 0 1-.2-.4v-15.5a.6.6 0 0 1 .2-.4l.4-.2H96l.4.4 4.3 7.8.2.2.2-.2 4.3-7.8.4-.4h2.6l.4.2a.6.6 0 0 1 .2.4zm3.2-29.8l-10.9-20.7a66.7 66.7 0 0 0 10.8-1.4 38.2 38.2 0 0 0 6-1.8l12.7 23.6a2.5 2.5 0 0 1 .3 1.1q0 1.2-1.5 1.2H114a1.4 1.4 0 0 1-1.2-.6zm14 25.5a4.7 4.7 0 0 1-.6 2.4 4.5 4.5 0 0 1-1.6 1.6 7.4 7.4 0 0 1-2.4.9l-3 .3h-4.6l-.7-.2a.8.8 0 0 1-.2-.6v-15.6a.6.6 0 0 1 .2-.4l.4-.2h1.5l.4.2a.6.6 0 0 1 .2.4v5.9h2.8l3 .3a7.4 7.4 0 0 1 2.4.9 4.5 4.5 0 0 1 1.6 1.6 4.7 4.7 0 0 1 .6 2.4zm5.1 4.3a.6.6 0 0 1-.2.4l-.4.2H129l-.4-.2a.6.6 0 0 1-.2-.4v-15.5a.6.6 0 0 1 .2-.4l.4-.2h1.5l.4.2a.6.6 0 0 1 .2.4z"/></svg>