<svg xmlns="http://www.w3.org/2000/svg"><path fill-rule="evenodd" d="M44.691 31.153c.84 5.303 2.312 10.919 4.753 12.962a1.563 1.563 0 0 1-1.007 2.76H35.344A18.624 18.624 0 0 1 25.001 50a18.63 18.63 0 0 1-10.343-3.125H1.566A1.568 1.568 0 0 1 .097 45.85a1.555 1.555 0 0 1 .462-1.731C3 42.072 4.472 36.456 5.312 31.156 2.315 30.697.003 28.125.003 25a6.256 6.256 0 0 1 6.25-6.25C6.253 8.409 14.661 0 25.001 0 35.341 0 43.75 8.409 43.75 18.75A6.256 6.256 0 0 1 50 25c0 3.125-2.313 5.697-5.309 6.153zM3.128 25c0 1.547 1.194 2.812 2.612 3.069.297-2.479.453-4.691.51-6.172-1.632.006-3.122 1.375-3.122 3.103zm1.65 18.75h6.287a18.805 18.805 0 0 1-3.803-6.478c-.628 2.384-1.434 4.659-2.484 6.478zM25.001 3.125c-8.599 0-15.595 6.987-15.62 15.584 17.423-.437 18.745-7.884 18.758-7.962.118-.847.906-1.46 1.737-1.347.847.103 1.453.85 1.366 1.697-.016.156-.213 1.547-1.397 3.271 2.031 1.466 5.374 3.029 10.724 3.832-.297-8.356-7.14-15.075-15.568-15.075zm15.624 18.206c-5.424-.75-9.721-2.325-12.836-4.687-2.938 2.509-8.415 4.943-18.411 5.184v9.422c0 8.615 7.008 15.625 15.623 15.625 5.084 0 9.565-2.478 12.421-6.25h-8.021c-.647 1.816-2.365 3.125-4.4 3.125a4.693 4.693 0 0 1-4.687-4.688 4.693 4.693 0 0 1 4.687-4.687c2.035 0 3.753 1.309 4.4 3.125H39.3a15.466 15.466 0 0 0 1.325-6.25v-9.919zM26.564 39.062c0-.859-.703-1.562-1.563-1.562-.859 0-1.562.703-1.562 1.562 0 .86.703 1.563 1.562 1.563.86 0 1.563-.703 1.563-1.563zm16.18-1.794a18.515 18.515 0 0 1-.981 2.338c-.022.056-.05.106-.078.159a18.667 18.667 0 0 1-2.744 3.982h6.287c-1.05-1.819-1.856-4.091-2.484-6.479zm1.009-15.371c.056 1.478.216 3.693.51 6.172 1.415-.26 2.612-1.522 2.612-3.069 0-1.728-1.494-3.094-3.122-3.103zm-7.815 7.79c-.862 0-1.562-.7-1.562-1.562 0-.859-.703-1.563-1.563-1.563-.859 0-1.562.704-1.562 1.563a1.563 1.563 0 0 1-3.125 0 4.694 4.694 0 0 1 4.687-4.688 4.694 4.694 0 0 1 4.688 4.688c0 .862-.7 1.562-1.563 1.562zm-15.624 0c-.862 0-1.562-.7-1.562-1.562 0-.859-.703-1.563-1.563-1.563-.859 0-1.562.704-1.562 1.563a1.563 1.563 0 0 1-3.125 0 4.694 4.694 0 0 1 4.687-4.688 4.694 4.694 0 0 1 4.688 4.688c0 .862-.7 1.562-1.563 1.562z"/></svg>