<svg xmlns="http://www.w3.org/2000/svg"><path fill-rule="evenodd" d="M17.869 33.999H2.13c-1.175 0-2.13-.976-2.13-2.177V2.176C0 .975.955-.001 2.13-.001h15.739C19.044-.001 20 .975 20 2.176v29.646c0 1.201-.956 2.177-2.131 2.177zm.71-31.823c0-.4-.318-.725-.71-.725H2.13a.719.719 0 0 0-.71.725v29.646c0 .4.319.726.71.726h15.739c.392 0 .71-.326.71-.726V2.176zm-2.122 24.507H3.543a.646.646 0 0 1-.639-.653V6.024c0-.361.286-.653.639-.653h12.914c.353 0 .639.292.639.653V26.03a.646.646 0 0 1-.639.653zm-.639-20.006H4.182v18.7h11.636v-18.7zM6.781 17.112l3.411-3.486a.7.7 0 0 1 1.005 0 .737.737 0 0 1 0 1.026l-3.412 3.486a.7.7 0 0 1-1.004 0 .737.737 0 0 1 0-1.026zm4.074-.078l1.359-1.388a.7.7 0 0 1 1.004 0 .735.735 0 0 1 0 1.026l-1.359 1.389a.698.698 0 0 1-1.004 0 .738.738 0 0 1 0-1.027zm2.172-12.97H9.752a.683.683 0 0 1-.675-.69c0-.38.302-.689.675-.689h3.275c.373 0 .675.309.675.689 0 .381-.302.69-.675.69zm-5.346.051a.716.716 0 0 1-.709-.724c0-.399.317-.724.709-.724.391 0 .708.325.708.724 0 .4-.317.724-.708.724zM10 27.766c1.018 0 1.846.846 1.846 1.886s-.828 1.886-1.846 1.886c-1.018 0-1.846-.846-1.846-1.886s.828-1.886 1.846-1.886zm0 2.466a.575.575 0 0 0 .567-.58c0-.32-.254-.58-.567-.58a.575.575 0 0 0-.568.58c0 .319.255.58.568.58z"/></svg>