<svg xmlns="http://www.w3.org/2000/svg"><path fill-rule="evenodd" d="M31 30.485C31 33.585 22.963 35 15.5 35 8.03 35 0 33.585 0 30.485c0-3.149 7.909-4.1 11.386-4.364-2.93-4.893-6.633-11.771-6.633-15.307C4.753 4.85 9.569 0 15.493 0c5.923 0 10.74 4.85 10.74 10.814 0 3.536-3.703 10.414-6.633 15.307 3.476.264 11.393 1.215 11.4 4.364zm-6.243-19.671c0-5.143-4.157-9.328-9.264-9.328-5.101 0-9.258 4.185-9.258 9.328 0 4.493 7.101 15.764 9.258 19.079 2.156-3.315 9.264-14.586 9.264-19.079zm-6.022 16.728c-1.412 2.293-2.476 3.929-2.625 4.108-.475.564-1.036.257-1.227 0-.142-.193-1.213-1.815-2.625-4.108-7.519.436-10.783 2.143-10.783 2.936 0 1.029 4.945 3.029 14.018 3.029s14.017-1.993 14.024-3.029c0-.8-3.263-2.5-10.782-2.936zm-7.917-16.728c0-2.6 2.093-4.707 4.675-4.707s4.675 2.107 4.675 4.707c0 2.6-2.093 4.707-4.675 4.707s-4.675-2.107-4.675-4.707zm7.874 0c0-1.778-1.433-3.221-3.199-3.221-1.767 0-3.2 1.443-3.2 3.221 0 1.779 1.433 3.222 3.2 3.222 1.766 0 3.199-1.443 3.199-3.222z"/></svg>