<svg xmlns="http://www.w3.org/2000/svg"><path fill-rule="evenodd" d="M50.672 42.413a1.586 1.586 0 0 1-1.677.567l-9.358-2.518-2.49 9.355A1.589 1.589 0 0 1 35.608 51c-.565 0-1.094-.3-1.381-.797l-8.724-15.102-8.724 15.102a1.595 1.595 0 0 1-1.591.781 1.589 1.589 0 0 1-1.329-1.17l-2.49-9.355-9.358 2.518a1.588 1.588 0 0 1-1.677-.567 1.594 1.594 0 0 1-.118-1.77l9.25-16.055a17.39 17.39 0 0 1-1.495-7.054C7.971 7.863 15.835 0 25.503 0s17.532 7.863 17.532 17.531c0 2.509-.539 4.893-1.495 7.057l9.25 16.059a1.593 1.593 0 0 1-.118 1.766zM4.898 38.897l7.185-1.932a1.625 1.625 0 0 1 1.212.16c.366.213.634.564.742.972l1.91 7.175 6.097-10.554c-4.402-.886-8.198-3.43-10.739-6.942L4.898 38.897zm20.605-35.71c-7.908 0-14.344 6.436-14.344 14.344 0 7.908 6.436 14.344 14.344 14.344 7.908 0 14.344-6.436 14.344-14.344 0-7.908-6.436-14.344-14.344-14.344zM39.7 27.779c-2.54 3.513-6.34 6.059-10.738 6.942l6.097 10.554 1.91-7.175c.108-.411.376-.762.742-.972a1.604 1.604 0 0 1 1.212-.159l7.184 1.931L39.7 27.779zm-8.013-8.935l.331 4.957a1.586 1.586 0 0 1-.666 1.405 1.595 1.595 0 0 1-1.549.166l-4.3-1.826-4.3 1.826a1.59 1.59 0 0 1-1.546-.166 1.597 1.597 0 0 1-.669-1.405l.331-4.957-3.031-3.793a1.592 1.592 0 0 1 .844-2.537l4.524-1.183 2.479-4.175c.571-.969 2.165-.969 2.739 0l2.48 4.175 4.52 1.183a1.595 1.595 0 0 1 .841 2.537l-3.028 3.793zm-3.774-4.596a1.6 1.6 0 0 1-.966-.727l-1.444-2.432-1.444 2.432a1.6 1.6 0 0 1-.966.727l-2.783.73 1.884 2.362c.249.312.373.704.345 1.1l-.198 2.986 2.537-1.08a1.592 1.592 0 0 1 1.25 0l2.54 1.08-.201-2.986a1.585 1.585 0 0 1 .345-1.1l1.884-2.362-2.783-.73z"/></svg>