<svg xmlns="http://www.w3.org/2000/svg"><path fill-rule="evenodd" d="M55.958 29.218a5.366 5.366 0 0 1-2.008 3.589L39.149 44.553c-1.544 1.211-3.437 1.875-5.341 1.875H10.499v1.786c0 .986-.784 1.786-1.75 1.786H1.75C.784 50 0 49.2 0 48.214v-25c0-.986.784-1.786 1.75-1.786h6.999c.966 0 1.75.8 1.75 1.786V25l19.249.003c.966 0 1.75.8 1.75 1.786 0 3.497-1.424 6.654-3.703 8.925h3.003a6.842 6.842 0 0 0 4.27-1.507l12.47-9.868c1.081-.864 2.443-1.271 3.832-1.086 1.4.175 2.657.9 3.524 2.043a5.338 5.338 0 0 1 1.064 3.922zM6.999 25H3.5v21.428h3.499V25zm45.138 2.496a1.769 1.769 0 0 0-1.194-.7 1.707 1.707 0 0 0-1.246.358l-12.47 9.864a10.321 10.321 0 0 1-6.429 2.268H19.249c-.966 0-1.75-.8-1.75-1.786s.784-1.786 1.75-1.786c4.224 0 7.762-3.071 8.574-7.139l-17.324-.004v14.286h23.309c1.134 0 2.275-.4 3.202-1.129l14.798-11.743c.381-.303.619-.732.679-1.21a1.76 1.76 0 0 0-.35-1.279zm-4.89-6.068c-.966 0-1.75-.8-1.75-1.785V3.571H34.998V12.5c0 .661-.357 1.264-.924 1.571a1.705 1.705 0 0 1-1.795-.086l-4.281-2.91-4.276 2.91c-.543.365-1.229.4-1.799.086a1.782 1.782 0 0 1-.924-1.571V3.571h-10.5v12.5c0 .986-.784 1.786-1.75 1.786s-1.75-.8-1.75-1.786V1.786C6.999.8 7.783 0 8.749 0h38.498c.966 0 1.75.8 1.75 1.786v17.857c0 .985-.784 1.785-1.75 1.785zM31.498 3.571h-6.999v5.59l2.526-1.718a1.734 1.734 0 0 1 1.943 0l2.53 1.718v-5.59z"/></svg>