<svg xmlns="http://www.w3.org/2000/svg"><path fill-rule="evenodd" d="M54.25 42.461h-2.072C51.453 44.517 49.528 46 47.25 46c-2.279 0-4.204-1.483-4.928-3.539H20.678C19.953 44.517 18.028 46 15.75 46c-2.279 0-4.204-1.483-4.928-3.539H5.25a1.76 1.76 0 0 1-1.75-1.769V21.025A12.4 12.4 0 0 1 0 12.384C0 5.555 5.495 0 12.25 0S24.5 5.555 24.5 12.384c0 .605-.095 1.186-.179 1.77H36.75c.966 0 1.75.792 1.75 1.769v5.308H49a1.74 1.74 0 0 1 1.501.86l5.25 8.846c.165.272.249.587.249.909v8.846a1.76 1.76 0 0 1-1.75 1.769zm-38.5 0c.962 0 1.75-.792 1.75-1.769 0-.976-.788-1.769-1.75-1.769-.963 0-1.75.793-1.75 1.769 0 .977.787 1.769 1.75 1.769zm-3.5-38.923c-4.827 0-8.75 3.97-8.75 8.846 0 4.877 3.923 8.847 8.75 8.847 4.826 0 8.75-3.97 8.75-8.847 0-4.876-3.924-8.846-8.75-8.846zM35 17.692H23.271c-1.974 4.169-6.153 7.077-11.021 7.077-1.887 0-3.654-.47-5.25-1.242v15.396h3.822c.724-2.056 2.649-3.539 4.928-3.539 2.278 0 4.203 1.483 4.928 3.539H35V17.692zm12.25 24.769c.962 0 1.75-.792 1.75-1.769 0-.976-.788-1.769-1.75-1.769-.963 0-1.75.793-1.75 1.769 0 .977.787 1.769 1.75 1.769zm5.25-10.123l-4.491-7.569H38.5v14.154h3.822c.724-2.056 2.649-3.539 4.928-3.539 2.278 0 4.203 1.483 4.928 3.539h.322v-6.585zM15.75 17.692c-.448 0-.896-.173-1.239-.517l-3.5-3.538a1.789 1.789 0 0 1-.511-1.253V8.846a1.76 1.76 0 0 1 1.75-1.769c.966 0 1.75.792 1.75 1.769v2.806l2.989 3.022c.682.69.682 1.812 0 2.501a1.745 1.745 0 0 1-1.239.517z"/></svg>