<svg xmlns="http://www.w3.org/2000/svg"><path fill-rule="evenodd" d="M147.07 150H147a2.93 2.93 0 0 1 0-5.859h.07a2.93 2.93 0 1 1 0 5.859zm-8.487 0H11.416a2.93 2.93 0 0 1 0-5.859h2.06V41.602a2.93 2.93 0 0 1 2.93-2.93H72.07V2.929A2.929 2.929 0 0 1 75 0h58.592a2.93 2.93 0 0 1 2.93 2.929v141.212h2.061a2.93 2.93 0 1 1 0 5.859zm-89.951-5.859h11.72v-11.718h-11.72v11.718zM72.07 44.532H19.336v87.89h6.162a2.93 2.93 0 0 1 0 5.86h-6.162v5.859h23.437v-14.648a2.93 2.93 0 0 1 2.93-2.93h17.578a2.93 2.93 0 0 1 2.93 2.93v14.648h5.859V44.532zm35.156 99.609h11.718v-11.718h-11.718v11.718zM130.662 5.859H77.929v126.563h6.162a2.93 2.93 0 0 1 0 5.86h-6.162v5.859h23.438v-14.648a2.93 2.93 0 0 1 2.929-2.93h17.578a2.93 2.93 0 0 1 2.93 2.93v14.648h5.858V5.859zm-8.788 107.518h-4.394a2.93 2.93 0 0 1-2.93-2.929v-4.394a2.93 2.93 0 0 1 2.93-2.93h4.394a2.93 2.93 0 0 1 2.93 2.93v4.394a2.93 2.93 0 0 1-2.93 2.929zm0-17.577h-4.394a2.93 2.93 0 0 1-2.93-2.929v-4.395a2.93 2.93 0 0 1 2.93-2.929h4.394a2.93 2.93 0 0 1 2.93 2.929v4.395a2.93 2.93 0 0 1-2.93 2.929zm0-17.577h-4.394a2.93 2.93 0 0 1-2.93-2.93v-4.395a2.93 2.93 0 0 1 2.93-2.93h4.394a2.93 2.93 0 0 1 2.93 2.93v4.395a2.93 2.93 0 0 1-2.93 2.93zm0-17.579h-4.394a2.93 2.93 0 0 1-2.93-2.929V53.32a2.93 2.93 0 0 1 2.93-2.929h4.394a2.93 2.93 0 0 1 2.93 2.929v4.395a2.93 2.93 0 0 1-2.93 2.929zm0-17.577h-4.394a2.93 2.93 0 0 1-2.93-2.93v-4.394a2.93 2.93 0 0 1 2.93-2.93h4.394a2.93 2.93 0 0 1 2.93 2.93v4.394a2.93 2.93 0 0 1-2.93 2.93zm0-17.577h-4.394a2.93 2.93 0 0 1-2.93-2.93v-4.395a2.93 2.93 0 0 1 2.93-2.93h4.394a2.93 2.93 0 0 1 2.93 2.93v4.395a2.93 2.93 0 0 1-2.93 2.93zm-15.38 87.887h-4.395a2.93 2.93 0 0 1-2.93-2.929v-4.394a2.93 2.93 0 0 1 2.93-2.93h4.395a2.93 2.93 0 0 1 2.929 2.93v4.394a2.929 2.929 0 0 1-2.929 2.929zm0-17.577h-4.395a2.93 2.93 0 0 1-2.93-2.929v-4.395a2.93 2.93 0 0 1 2.93-2.929h4.395a2.929 2.929 0 0 1 2.929 2.929v4.395a2.929 2.929 0 0 1-2.929 2.929zm0-17.577h-4.395a2.93 2.93 0 0 1-2.93-2.93v-4.395a2.93 2.93 0 0 1 2.93-2.93h4.395a2.93 2.93 0 0 1 2.929 2.93v4.395a2.93 2.93 0 0 1-2.929 2.93zm0-17.579h-4.395a2.93 2.93 0 0 1-2.93-2.929V53.32a2.93 2.93 0 0 1 2.93-2.929h4.395a2.929 2.929 0 0 1 2.929 2.929v4.395a2.93 2.93 0 0 1-2.929 2.929zm0-17.577h-4.395a2.93 2.93 0 0 1-2.93-2.93v-4.394a2.93 2.93 0 0 1 2.93-2.93h4.395a2.93 2.93 0 0 1 2.929 2.93v4.394a2.93 2.93 0 0 1-2.929 2.93zm0-17.577h-4.395a2.93 2.93 0 0 1-2.93-2.93v-4.395a2.93 2.93 0 0 1 2.93-2.93h4.395a2.93 2.93 0 0 1 2.929 2.93v4.395a2.93 2.93 0 0 1-2.929 2.93zM92.577 138.282h-.069a2.93 2.93 0 0 1 0-5.86h.069a2.93 2.93 0 0 1 0 5.86zm-1.464-24.905h-4.395a2.929 2.929 0 0 1-2.929-2.929v-4.394a2.93 2.93 0 0 1 2.929-2.93h4.395a2.93 2.93 0 0 1 2.929 2.93v4.394a2.929 2.929 0 0 1-2.929 2.929zm0-17.577h-4.395a2.93 2.93 0 0 1-2.929-2.929v-4.395a2.929 2.929 0 0 1 2.929-2.929h4.395a2.929 2.929 0 0 1 2.929 2.929v4.395a2.929 2.929 0 0 1-2.929 2.929zm0-17.577h-4.395a2.93 2.93 0 0 1-2.929-2.93v-4.395a2.93 2.93 0 0 1 2.929-2.93h4.395a2.93 2.93 0 0 1 2.929 2.93v4.395a2.93 2.93 0 0 1-2.929 2.93zm0-17.579h-4.395a2.93 2.93 0 0 1-2.929-2.929V53.32a2.929 2.929 0 0 1 2.929-2.929h4.395a2.929 2.929 0 0 1 2.929 2.929v4.395a2.93 2.93 0 0 1-2.929 2.929zm0-17.577h-4.395a2.93 2.93 0 0 1-2.929-2.93v-4.394a2.93 2.93 0 0 1 2.929-2.93h4.395a2.93 2.93 0 0 1 2.929 2.93v4.394a2.93 2.93 0 0 1-2.929 2.93zm0-17.577h-4.395a2.93 2.93 0 0 1-2.929-2.93v-4.395a2.93 2.93 0 0 1 2.929-2.93h4.395a2.93 2.93 0 0 1 2.929 2.93v4.395a2.93 2.93 0 0 1-2.929 2.93zm-27.832 87.887h-4.394a2.93 2.93 0 0 1-2.93-2.929v-4.394a2.93 2.93 0 0 1 2.93-2.93h4.394a2.93 2.93 0 0 1 2.93 2.93v4.394a2.93 2.93 0 0 1-2.93 2.929zm0-17.577h-4.394a2.93 2.93 0 0 1-2.93-2.929v-4.395a2.93 2.93 0 0 1 2.93-2.929h4.394a2.93 2.93 0 0 1 2.93 2.929v4.395a2.93 2.93 0 0 1-2.93 2.929zm0-17.577h-4.394a2.93 2.93 0 0 1-2.93-2.93v-4.395a2.93 2.93 0 0 1 2.93-2.93h4.394a2.93 2.93 0 0 1 2.93 2.93v4.395a2.93 2.93 0 0 1-2.93 2.93zm0-17.579h-4.394a2.93 2.93 0 0 1-2.93-2.929V53.32a2.93 2.93 0 0 1 2.93-2.929h4.394a2.93 2.93 0 0 1 2.93 2.929v4.395a2.93 2.93 0 0 1-2.93 2.929zM47.9 113.377h-4.395a2.93 2.93 0 0 1-2.929-2.929v-4.394a2.93 2.93 0 0 1 2.929-2.93H47.9a2.93 2.93 0 0 1 2.93 2.93v4.394a2.93 2.93 0 0 1-2.93 2.929zm0-17.577h-4.395a2.93 2.93 0 0 1-2.929-2.929v-4.395a2.93 2.93 0 0 1 2.929-2.929H47.9a2.93 2.93 0 0 1 2.93 2.929v4.395A2.93 2.93 0 0 1 47.9 95.8zm0-17.577h-4.395a2.93 2.93 0 0 1-2.929-2.93v-4.395a2.93 2.93 0 0 1 2.929-2.93H47.9a2.93 2.93 0 0 1 2.93 2.93v4.395a2.93 2.93 0 0 1-2.93 2.93zm0-17.579h-4.395a2.93 2.93 0 0 1-2.929-2.929V53.32a2.93 2.93 0 0 1 2.929-2.929H47.9a2.93 2.93 0 0 1 2.93 2.929v4.395a2.93 2.93 0 0 1-2.93 2.929zm-13.916 77.638h-.069a2.93 2.93 0 0 1 0-5.86h.069a2.93 2.93 0 0 1 0 5.86zm-1.465-24.905h-4.394a2.929 2.929 0 0 1-2.93-2.929v-4.394a2.93 2.93 0 0 1 2.93-2.93h4.394a2.93 2.93 0 0 1 2.93 2.93v4.394a2.93 2.93 0 0 1-2.93 2.929zm0-17.577h-4.394a2.93 2.93 0 0 1-2.93-2.929v-4.395a2.929 2.929 0 0 1 2.93-2.929h4.394a2.93 2.93 0 0 1 2.93 2.929v4.395a2.93 2.93 0 0 1-2.93 2.929zm0-17.577h-4.394a2.93 2.93 0 0 1-2.93-2.93v-4.395a2.93 2.93 0 0 1 2.93-2.93h4.394a2.93 2.93 0 0 1 2.93 2.93v4.395a2.93 2.93 0 0 1-2.93 2.93zm0-17.579h-4.394a2.93 2.93 0 0 1-2.93-2.929V53.32a2.929 2.929 0 0 1 2.93-2.929h4.394a2.93 2.93 0 0 1 2.93 2.929v4.395a2.93 2.93 0 0 1-2.93 2.929zM2.999 150H2.93a2.93 2.93 0 1 1 0-5.859h.069a2.929 2.929 0 1 1 0 5.859z"/></svg>