<svg xmlns="http://www.w3.org/2000/svg" viewBox="0 0 227 227.2"><title>whatsapp</title><path d="M113.6 0a113.4 113.4 0 0 0-97.7 170.8L0 227.2l58.2-15A113.4 113.4 0 1 0 113.6 0zm69.9 143.8l-1.3 6.2a26.7 26.7 0 0 1-11.6 16.9c-7.6 4.8-17.4 7.2-29.8 3.7-38.7-10.9-60.5-36.5-72.3-52.5S52.2 86.1 55.1 73c2-8.8 8.4-15.5 12.4-19a10 10 0 0 1 7.1-2.4l8.3.5a4.3 4.3 0 0 1 3.7 2.6l12 28.2a4.3 4.3 0 0 1-.7 4.5l-10.4 12a3.2 3.2 0 0 0-.4 3.5c13.8 26.6 38.9 37.1 46.4 39.8a3.1 3.1 0 0 0 3.5-1l11-14.2a4.3 4.3 0 0 1 5.2-1.3l27.9 12.8a4.3 4.3 0 0 1 2.4 4.8z"/></svg>